<svg xmlns="http://www.w3.org/2000/svg" xmlns:xlink="http://www.w3.org/1999/xlink" width="1920" zoomAndPan="magnify" viewBox="0 0 1440 809.999993" height="1080" preserveAspectRatio="xMidYMid meet" version="1.0"><defs><clipPath id="id1"><path d="M 0 29 L 1440 29 L 1440 810 L 0 810 Z M 0 29 " clip-rule="nonzero"/></clipPath><clipPath id="id2"><path d="M 1608.035156 814.34375 L -8.738281 927.777344 L -63.800781 142.957031 L 1552.972656 29.523438 Z M 1608.035156 814.34375 " clip-rule="nonzero"/></clipPath><clipPath id="id3"><path d="M 0 691 L 1440 691 L 1440 810 L 0 810 Z M 0 691 " clip-rule="nonzero"/></clipPath><clipPath id="id4"><path d="M -36.992188 672.28125 L 1583.386719 706.820312 L 1576.996094 1006.75 L -43.386719 972.214844 Z M -36.992188 672.28125 " clip-rule="nonzero"/></clipPath><clipPath id="id5"><path d="M 214 29 L 1440 29 L 1440 421 L 214 421 Z M 214 29 " clip-rule="nonzero"/></clipPath><clipPath id="id6"><path d="M 1823.441406 456.601562 L 208.707031 317.097656 L 233.558594 29.417969 L 1848.292969 168.925781 Z M 1823.441406 456.601562 " clip-rule="nonzero"/></clipPath><clipPath id="id7"><path d="M 0 0 L 1440 0 L 1440 353.523438 L 0 353.523438 Z M 0 0 " clip-rule="nonzero"/></clipPath></defs><rect x="-144" width="1728" fill="#ffffff" y="-80.999999" height="971.999992" fill-opacity="1"/><rect x="-144" width="1728" fill="#031927" y="-80.999999" height="971.999992" fill-opacity="1"/><rect x="-144" width="1728" fill="#ffffff" y="-80.999999" height="971.999992" fill-opacity="1"/><rect x="-144" width="1728" fill="#031927" y="-80.999999" height="971.999992" fill-opacity="1"/><g clip-path="url(#id1)"><g clip-path="url(#id2)"><path fill="#51011f" d="M 172.753906 883.859375 C 287.378906 896.605469 403.371094 905.683594 518.128906 887.886719 C 629.027344 870.6875 728.066406 809.496094 839.996094 797.746094 C 953.542969 785.878906 1069.09375 797.914062 1181.148438 815.710938 C 1369.421875 845.378906 1512.550781 782.714844 1601.566406 722.226562 L 1552.96875 29.523438 L -63.796875 142.953125 L -13.585938 858.605469 C 47.992188 870.199219 111.191406 877.136719 172.753906 883.859375 " fill-opacity="1" fill-rule="nonzero"/></g></g><g clip-path="url(#id3)"><g clip-path="url(#id4)"><path fill="#7a012f" d="M 1398.644531 734.035156 C 1285.660156 710.859375 1170.980469 691.214844 1055.078125 698.480469 C 943.074219 705.503906 838.863281 757.476562 726.328125 758.972656 C 612.171875 760.433594 498.199219 737.882812 388.238281 709.902344 C 203.457031 663.128906 55.207031 712.539062 -38.957031 764.730469 L -43.378906 972.214844 L 1576.988281 1006.75 L 1581.902344 776.234375 C 1521.640625 759.050781 1459.335938 746.363281 1398.644531 734.035156 " fill-opacity="1" fill-rule="nonzero"/></g></g><g clip-path="url(#id5)"><g clip-path="url(#id6)"><path fill="#7a012f" d="M 394.824219 301.964844 C 506.070312 332.382812 619.238281 359.390625 735.363281 359.671875 C 847.585938 359.9375 954.9375 314.921875 1067.335938 320.730469 C 1181.34375 326.679688 1293.613281 356.535156 1401.535156 391.542969 C 1582.902344 450.125 1734.03125 410.515625 1831.375 364.632812 L 1848.28125 168.921875 L 233.570312 29.417969 L 214.683594 248.042969 C 273.707031 269.070312 335.058594 285.75 394.824219 301.964844 " fill-opacity="1" fill-rule="nonzero"/></g></g><g clip-path="url(#id7)"><path fill="#a2013f" d="M 163.585938 325.878906 C 264.386719 344.308594 366.625 359.574219 469.441406 350.933594 C 568.800781 342.582031 660.382812 294.488281 760.320312 291.03125 C 861.695312 287.574219 963.359375 305.429688 1061.566406 328.183594 C 1226.589844 366.195312 1357.339844 319.542969 1439.996094 271.449219 L 1439.996094 -12.476562 L 0.00390625 -12.476562 L 0.00390625 291.894531 C 53.859375 306.007812 109.445312 316.085938 163.585938 325.878906 " fill-opacity="1" fill-rule="nonzero"/></g><path fill="#a2013f" d="M 719.820312 741 C 205.574219 741 -211.304688 795.398438 -211.304688 862.5 C -211.304688 929.601562 205.574219 984 719.820312 984 C 1234.066406 984 1650.945312 929.601562 1650.945312 862.5 C 1650.945312 795.398438 1234.066406 741 719.820312 741 " fill-opacity="1" fill-rule="nonzero"/></svg>