<svg xmlns="http://www.w3.org/2000/svg" xmlns:xlink="http://www.w3.org/1999/xlink" width="300" zoomAndPan="magnify" viewBox="0 0 224.87999 202.499994" height="270" preserveAspectRatio="xMidYMid meet" version="1.0"><defs><clipPath id="id1"><path d="M 83 9.757812 L 213.804688 9.757812 L 213.804688 141 L 83 141 Z M 83 9.757812 " clip-rule="nonzero"/></clipPath><clipPath id="id2"><path d="M 11.058594 68 L 193 68 L 193 192.304688 L 11.058594 192.304688 Z M 11.058594 68 " clip-rule="nonzero"/></clipPath></defs><g clip-path="url(#id1)"><path fill="#51011f" d="M 148.429688 140.582031 C 184.4375 140.582031 213.800781 111.203125 213.800781 75.179688 C 213.800781 39.160156 184.433594 9.777344 148.425781 9.777344 C 112.421875 9.777344 83.054688 39.160156 83.054688 75.179688 C 83.054688 111.203125 112.421875 140.582031 148.425781 140.582031 Z M 148.429688 140.582031 " fill-opacity="1" fill-rule="evenodd"/></g><g clip-path="url(#id2)"><path fill="#a2013f" d="M 173.441406 114.394531 L 173.441406 107.703125 L 159.375 107.703125 L 159.199219 103.90625 C 158.171875 104.886719 156.886719 105.4375 155.421875 105.742188 L 154.703125 96.136719 L 156.675781 96.136719 L 156.460938 91.53125 L 172.964844 91.53125 L 180.300781 79.628906 C 183.140625 79.304688 185.898438 78.964844 188.554688 78.601562 L 192.964844 68.421875 C 143.824219 75.078125 60.199219 75.078125 11.050781 68.421875 L 15.460938 78.601562 C 18.117188 78.964844 20.878906 79.304688 23.714844 79.628906 L 31.050781 91.53125 L 47.558594 91.53125 L 47.34375 96.136719 L 49.3125 96.136719 L 48.59375 105.742188 C 47.132812 105.4375 45.847656 104.886719 44.816406 103.90625 L 44.640625 107.703125 L 30.574219 107.703125 L 30.574219 114.394531 L 47.949219 114.394531 L 43.820312 169.539062 L 42.859375 169.539062 L 40.394531 192.273438 L 58.757812 192.273438 L 59.035156 169.539062 L 57.898438 169.539062 L 60.464844 114.394531 L 143.546875 114.394531 L 146.113281 169.539062 L 144.976562 169.539062 L 145.253906 192.273438 L 163.621094 192.273438 L 161.15625 169.539062 L 160.191406 169.539062 L 156.066406 114.394531 L 173.425781 114.394531 L 173.425781 114.390625 Z M 63.765625 91.53125 L 97.496094 91.53125 L 97.496094 107.703125 L 65.175781 107.703125 L 65.351562 103.90625 C 64.101562 105.003906 62.578125 105.558594 60.871094 105.84375 L 61.324219 96.136719 L 63.550781 96.136719 L 63.765625 91.527344 Z M 140.257812 91.53125 L 140.472656 96.136719 L 142.703125 96.136719 L 143.15625 105.839844 C 141.445312 105.558594 139.925781 105 138.671875 103.90625 L 138.847656 107.703125 L 106.53125 107.703125 L 106.53125 91.53125 Z M 140.257812 91.53125 " fill-opacity="1" fill-rule="evenodd"/></g></svg>