<svg xmlns="http://www.w3.org/2000/svg" xmlns:xlink="http://www.w3.org/1999/xlink" width="1920" zoomAndPan="magnify" viewBox="0 0 1440 809.999993" height="1080" preserveAspectRatio="xMidYMid meet" version="1.0"><defs><clipPath id="id1"><path d="M 0 48.128906 L 1359 48.128906 L 1359 303.128906 L 0 303.128906 Z M 0 48.128906 " clip-rule="nonzero"/></clipPath><clipPath id="id2"><path d="M 305.21875 22.304688 L 1440 22.304688 L 1440 244.304688 L 305.21875 244.304688 Z M 305.21875 22.304688 " clip-rule="nonzero"/></clipPath></defs><rect x="-144" width="1728" fill="#ffffff" y="-80.999999" height="971.999992" fill-opacity="1"/><rect x="-144" width="1728" fill="#ffffff" y="-80.999999" height="971.999992" fill-opacity="1"/><rect x="-144" width="1728" fill="#ffffff" y="-80.999999" height="971.999992" fill-opacity="1"/><rect x="-144" width="1728" fill="#ffffff" y="-80.999999" height="971.999992" fill-opacity="1"/><path fill="#031927" d="M 0.00390625 0 L 1439.996094 0 L 1439.996094 303 L 0.00390625 303 L 0.00390625 0 " fill-opacity="1" fill-rule="nonzero"/><g clip-path="url(#id1)"><path fill="#51011f" d="M 1195.390625 75.785156 C 1094.59375 57.347656 992.359375 42.082031 889.546875 50.722656 C 790.191406 59.078125 698.613281 107.1875 598.683594 110.644531 C 497.308594 114.101562 395.652344 96.242188 297.449219 73.480469 C 132.429688 35.453125 1.683594 82.125 -80.96875 130.238281 L -80.96875 303.128906 L 1358.96875 303.128906 L 1358.96875 109.78125 C 1305.113281 95.664062 1249.53125 85.582031 1195.390625 75.785156 " fill-opacity="1" fill-rule="nonzero"/></g><g clip-path="url(#id2)"><path fill="#7a012f" d="M 1581.632812 49.945312 C 1480.832031 31.519531 1378.59375 16.257812 1275.777344 24.894531 C 1176.417969 33.246094 1084.835938 81.332031 984.898438 84.785156 C 883.523438 88.242188 781.859375 70.390625 683.652344 47.640625 C 518.628906 9.632812 387.878906 56.28125 305.222656 104.367188 L 305.222656 244.304688 L 1745.214844 244.304688 L 1745.214844 83.921875 C 1691.359375 69.8125 1635.777344 59.734375 1581.632812 49.945312 " fill-opacity="1" fill-rule="nonzero"/></g><path fill="#a2013f" d="M 1276.414062 108.648438 C 1175.617188 90.214844 1073.375 74.953125 970.558594 83.59375 C 871.199219 91.945312 779.617188 140.039062 679.679688 143.496094 C 578.304688 146.953125 476.640625 129.097656 378.433594 106.34375 C 213.40625 68.328125 82.65625 114.984375 0 163.078125 L 0 810 L 1440 810 L 1440 142.632812 C 1386.144531 128.519531 1330.558594 118.441406 1276.414062 108.648438 " fill-opacity="1" fill-rule="nonzero"/></svg>