<svg xmlns="http://www.w3.org/2000/svg" xmlns:xlink="http://www.w3.org/1999/xlink" width="1920" zoomAndPan="magnify" viewBox="0 0 1440 809.999993" height="1080" preserveAspectRatio="none" version="1.0"><defs><clipPath id="id1"><path d="M 127 0 L 1440 0 L 1440 810 L 127 810 Z M 127 0 " clip-rule="nonzero"/></clipPath><clipPath id="id2"><path d="M 1601.261719 1403.394531 L 89.285156 509.40625 L 878.683594 -825.679688 L 2390.660156 68.3125 Z M 1601.261719 1403.394531 " clip-rule="nonzero"/></clipPath><clipPath id="id3"><path d="M 1386.152344 1263.550781 L -125.824219 369.558594 L 562.417969 -794.441406 L 2074.394531 99.546875 Z M 1386.152344 1263.550781 " clip-rule="nonzero"/></clipPath><clipPath id="id4"><path d="M 1301.035156 1135.570312 L -210.941406 241.578125 L 378.816406 -755.859375 L 1890.792969 138.128906 Z M 1301.035156 1135.570312 " clip-rule="nonzero"/></clipPath></defs><rect x="-144" width="1728" fill="#031927" y="-80.999999" height="971.999992" fill-opacity="1"/><rect x="-144" width="1728" fill="#ffffff" y="-80.999999" height="971.999992" fill-opacity="1"/><rect x="-144" width="1728" fill="#031927" y="-80.999999" height="971.999992" fill-opacity="1"/><g clip-path="url(#id1)"><g clip-path="url(#id2)"><path fill="#51011f" d="M 278.214844 581.925781 C 372.609375 663.863281 470.480469 743.367188 583.800781 798.125 C 693.3125 851.035156 819.339844 857.378906 926.417969 915.792969 C 1035.007812 975.101562 1130.664062 1056.96875 1219.652344 1141.835938 C 1369.316406 1284.214844 1535.578125 1316.386719 1652.234375 1317.1875 L 2390.660156 68.308594 L 878.683594 -825.679688 L 127.558594 444.675781 C 175.34375 492.929688 227.445312 538.027344 278.214844 581.925781 " fill-opacity="1" fill-rule="nonzero"/></g></g><g clip-path="url(#id3)"><path fill="#7a012f" d="M 63.105469 442.078125 C 157.496094 524.019531 255.367188 603.523438 368.6875 658.277344 C 478.203125 711.191406 604.230469 717.53125 711.308594 775.945312 C 819.898438 835.253906 915.554688 917.121094 1004.539062 1001.988281 C 1154.203125 1144.371094 1320.464844 1176.539062 1437.121094 1177.339844 L 2074.390625 99.546875 L 562.417969 -794.441406 L -87.546875 304.828125 C -39.765625 353.085938 12.335938 398.179688 63.105469 442.078125 " fill-opacity="1" fill-rule="nonzero"/></g><g clip-path="url(#id4)"><path fill="#a2013f" d="M -22.007812 314.09375 C 72.382812 396.035156 170.253906 475.542969 283.574219 530.296875 C 393.085938 583.210938 519.121094 589.546875 626.199219 647.957031 C 734.789062 707.265625 830.441406 789.136719 919.429688 874.007812 C 1069.089844 1016.390625 1235.355469 1048.554688 1352.011719 1049.351562 L 1890.792969 138.128906 L 378.820312 -755.859375 L -172.660156 176.839844 C -124.875 225.097656 -72.773438 270.195312 -22.007812 314.09375 " fill-opacity="1" fill-rule="nonzero"/></g><path fill="#031927" d="M 365.886719 695.503906 C 365.886719 706.1875 357.222656 714.851562 346.53125 714.851562 L 289.699219 714.851562 C 279.007812 714.851562 270.34375 723.515625 270.34375 734.199219 C 270.34375 744.886719 279.007812 753.550781 289.699219 753.550781 L 40 753.550781 C 29.3125 753.550781 20.648438 744.886719 20.648438 734.199219 C 20.648438 723.515625 29.3125 714.851562 40 714.851562 C 40 714.851562 40.003906 714.851562 40.003906 714.851562 C 40.0625 714.851562 49.214844 714.851562 49.214844 714.851562 C 59.90625 714.851562 68.566406 706.1875 68.566406 695.503906 C 68.566406 684.816406 59.90625 676.15625 49.214844 676.15625 L 24.859375 676.15625 C 14.167969 676.15625 5.5 667.488281 5.5 656.804688 C 5.5 646.117188 14.167969 637.457031 24.859375 637.457031 L 317.90625 637.457031 C 328.597656 637.457031 337.265625 646.117188 337.265625 656.804688 C 337.265625 667.488281 328.597656 676.15625 317.90625 676.15625 L 346.53125 676.15625 C 357.222656 676.15625 365.886719 684.816406 365.886719 695.503906 " fill-opacity="1" fill-rule="nonzero"/><path fill="#7a012f" d="M 232.828125 662.996094 C 232.828125 705.1875 198.617188 739.390625 156.414062 739.390625 C 114.210938 739.390625 80 705.1875 80 662.996094 C 80 620.808594 114.210938 586.605469 156.414062 586.605469 C 198.617188 586.605469 232.828125 620.808594 232.828125 662.996094 " fill-opacity="1" fill-rule="nonzero"/><path fill="#031927" d="M 160.332031 709.632812 C 175.714844 717.691406 189.882812 725.144531 198.714844 723.398438 C 203.328125 722.488281 208.40625 720.679688 213.699219 718.359375 L 213.699219 710.5625 C 209.128906 710.734375 204.011719 710.894531 198.253906 711.03125 C 179.292969 711.484375 167.464844 710.625 160.332031 709.632812 Z M 255.4375 628.921875 Z M 250.972656 628.921875 Z M 365.886719 698.085938 L 365.886719 810.015625 L 0.113281 810.015625 L 0.113281 755.421875 C 18.957031 741.863281 87.109375 693.914062 110.726562 692.242188 C 122.390625 691.414062 136.640625 697.539062 150.605469 704.597656 L 150.605469 702.722656 L 153.378906 701.902344 L 152.351562 701.082031 L 152.351562 696.15625 C 158.199219 700.160156 164.746094 696.980469 164.746094 696.980469 L 164.746094 694.207031 C 164.746094 694.207031 169.597656 695.230469 179.863281 694.207031 C 190.128906 693.179688 194.523438 688.246094 194.523438 688.246094 L 196.066406 688.203125 L 196.066406 682.042969 L 194.523438 682.042969 L 194.523438 680.554688 L 213.699219 680.554688 L 213.699219 671.832031 L 210.585938 671.789062 L 210.585938 669.558594 L 213.699219 669.601562 L 213.699219 666.355469 L 210.585938 666.3125 L 210.585938 664.082031 L 213.699219 664.121094 L 213.699219 650.265625 C 209.128906 650.441406 204.011719 650.597656 198.253906 650.738281 C 159.664062 651.660156 150.605469 647.144531 150.605469 647.144531 L 150.605469 643.332031 L 153.378906 642.511719 L 152.351562 641.691406 L 152.351562 636.761719 C 158.199219 640.765625 164.746094 637.585938 164.746094 637.585938 L 164.746094 634.8125 C 164.746094 634.8125 169.597656 635.839844 179.863281 634.8125 C 190.128906 633.785156 198.253906 628.859375 198.253906 628.859375 L 199.800781 628.820312 L 199.800781 622.65625 L 253.203125 621.171875 L 306.613281 622.65625 L 306.613281 628.820312 L 308.15625 628.859375 C 308.15625 628.859375 316.28125 633.785156 326.550781 634.8125 C 336.816406 635.839844 341.664062 634.8125 341.664062 634.8125 L 341.664062 637.585938 C 341.664062 637.585938 348.210938 640.765625 354.0625 636.761719 L 354.0625 641.691406 L 353.039062 642.511719 L 355.808594 643.332031 L 355.808594 647.144531 C 355.808594 647.144531 346.746094 651.660156 308.15625 650.738281 C 302.402344 650.597656 297.285156 650.441406 292.710938 650.265625 L 292.710938 664.121094 L 295.824219 664.082031 L 295.824219 666.3125 L 292.710938 666.355469 L 292.710938 669.601562 L 295.824219 669.558594 L 295.824219 671.789062 L 292.710938 671.832031 L 292.710938 678.75 C 304.496094 673.355469 315.65625 668.921875 322.042969 668.921875 C 337.898438 668.921875 365.886719 698.085938 365.886719 698.085938 Z M 308.15625 622.65625 L 253.203125 621.171875 L 198.253906 622.65625 L 198.253906 621.171875 L 219.042969 620.605469 L 219.042969 612.464844 L 216.296875 612.542969 L 216.296875 610.308594 L 219.042969 610.234375 L 219.042969 606.984375 L 216.296875 607.0625 L 216.296875 604.832031 L 219.042969 604.757812 L 219.042969 593.640625 C 213.492188 594.0625 207.15625 594.265625 199.953125 594.148438 C 160.183594 593.488281 156.414062 589.855469 156.414062 589.855469 L 156.414062 576.40625 C 160.402344 576.769531 171.292969 576.574219 171.292969 576.574219 L 171.835938 572.6875 C 184.511719 572.375 186.84375 571.90625 208.925781 560.636719 C 231.003906 549.367188 238.390625 541.828125 238.390625 541.828125 L 238.441406 541.84375 C 238.410156 541.664062 238.390625 541.476562 238.390625 541.285156 C 238.390625 539.867188 239.226562 538.71875 240.261719 538.71875 L 241.660156 538.71875 L 241.660156 532.535156 L 249.738281 532.210938 L 253.203125 486 L 256.675781 532.210938 L 264.753906 532.535156 L 264.753906 538.71875 L 266.152344 538.71875 C 267.183594 538.71875 268.019531 539.867188 268.019531 541.285156 C 268.019531 541.476562 268.003906 541.664062 267.972656 541.84375 L 268.019531 541.828125 C 268.019531 541.828125 275.40625 549.367188 297.488281 560.636719 C 319.570312 571.90625 321.902344 572.375 334.574219 572.6875 L 335.121094 576.574219 C 335.121094 576.574219 346.011719 576.769531 349.996094 576.40625 L 349.996094 589.855469 C 349.996094 589.855469 346.230469 593.488281 306.457031 594.148438 C 299.257812 594.265625 292.921875 594.0625 287.367188 593.640625 L 287.367188 604.757812 L 290.121094 604.832031 L 290.121094 607.0625 L 287.367188 606.984375 L 287.367188 610.234375 L 290.121094 610.308594 L 290.121094 612.542969 L 287.367188 612.464844 L 287.367188 620.605469 L 308.15625 621.171875 L 308.15625 622.65625 " fill-opacity="1" fill-rule="nonzero"/></svg>