<?xml version="1.0" encoding="UTF-8"?>
<svg xmlns="http://www.w3.org/2000/svg" xmlns:xlink="http://www.w3.org/1999/xlink" viewBox="0 0 24 24" width="24px" height="24px">
<g id="surface7958169">
<path style=" stroke:none;fill-rule:nonzero;fill:rgb(20.392157%,59.607846%,85.882354%);fill-opacity:1;" d="M 19 3 L 5 3 C 3.898438 3 3 3.898438 3 5 L 3 19 C 3 20.101562 3.898438 21 5 21 L 19 21 C 20.101562 21 21 20.101562 21 19 L 21 5 C 21 3.898438 20.101562 3 19 3 Z M 9 17 L 6.5 17 L 6.5 10 L 9 10 Z M 7.699219 8.699219 C 6.898438 8.699219 6.398438 8.199219 6.398438 7.5 C 6.398438 6.800781 6.898438 6.300781 7.800781 6.300781 C 8.601562 6.300781 9.101562 6.800781 9.101562 7.5 C 9.101562 8.199219 8.601562 8.699219 7.699219 8.699219 Z M 18 17 L 15.601562 17 L 15.601562 13.199219 C 15.601562 12.101562 14.898438 11.898438 14.699219 11.898438 C 14.5 11.898438 13.601562 12.101562 13.601562 13.199219 C 13.601562 13.398438 13.601562 17 13.601562 17 L 11.101562 17 L 11.101562 10 L 13.601562 10 L 13.601562 11 C 13.898438 10.398438 14.601562 10 15.800781 10 C 17 10 18 11 18 13.199219 Z M 18 17 "/>
</g>
</svg>
