<svg xmlns="http://www.w3.org/2000/svg" xmlns:xlink="http://www.w3.org/1999/xlink" width="128" zoomAndPan="magnify" viewBox="0 0 96 95.999999" height="128" preserveAspectRatio="xMidYMid meet" version="1.0"><defs><g/></defs><g fill="#a2013f" fill-opacity="1"><g transform="translate(0.0000005, 64.502477)"><g><path d="M 24.375 -31.765625 L 6.351562 -24.664062 C 5.082031 -24.027344 4.042969 -23.449219 3.351562 -22.988281 C 2.773438 -22.527344 2.308594 -22.0625 1.964844 -21.601562 C 1.675781 -21.140625 1.445312 -20.5625 1.214844 -19.867188 C 1.15625 -19.464844 0.980469 -18.597656 0.75 -17.269531 C 0.636719 -16.402344 0.578125 -15.710938 0.578125 -15.132812 C 0.578125 -14.324219 0.75 -13.6875 0.980469 -13.109375 C 1.214844 -12.648438 1.675781 -12.1875 2.308594 -11.726562 C 2.886719 -11.378906 3.695312 -10.972656 4.734375 -10.511719 L 11.089844 -7.507812 L 20.332031 -3.0625 C 20.792969 -6.066406 21.023438 -7.96875 21.023438 -8.78125 C 21.023438 -9.875 20.792969 -10.742188 20.332031 -11.320312 C 20.101562 -11.667969 19.695312 -12.015625 19.175781 -12.359375 C 18.773438 -12.648438 17.90625 -13.167969 16.632812 -13.863281 L 9.589844 -17.210938 L 17.730469 -20.390625 C 19.347656 -21.023438 20.390625 -21.484375 20.910156 -21.773438 C 21.71875 -22.238281 22.292969 -22.929688 22.640625 -23.738281 C 22.929688 -24.433594 23.21875 -25.296875 23.449219 -26.453125 C 23.679688 -27.378906 23.96875 -29.109375 24.375 -31.765625 Z M 24.375 -31.765625 "/></g></g></g><g fill="#a2013f" fill-opacity="1"><g transform="translate(24.951639, 64.502477)"><g><path d="M 14.441406 -40.429688 C 11.78125 -40.429688 9.992188 -40.375 9.125 -40.257812 C 8.085938 -40.085938 7.335938 -39.679688 6.816406 -39.101562 C 6.410156 -38.640625 6.066406 -37.773438 5.832031 -36.617188 C 5.660156 -35.925781 5.429688 -34.480469 5.082031 -32.285156 L 4.910156 -30.726562 L 13.109375 -30.726562 Z M 4.621094 -28.648438 L 1.15625 -4.214844 C 1.097656 -3.640625 1.039062 -3.292969 0.925781 -3.0625 C 0.867188 -2.773438 0.75 -2.484375 0.519531 -2.195312 C 0.347656 -1.964844 0.0585938 -1.675781 -0.40625 -1.214844 C -0.636719 -0.980469 -1.039062 -0.578125 -1.734375 0 L 0.980469 0 C 3.0625 0 4.503906 -0.0585938 5.257812 -0.117188 C 6.527344 -0.230469 7.449219 -0.578125 8.027344 -1.097656 C 8.546875 -1.617188 8.953125 -2.484375 9.183594 -3.695312 C 9.414062 -4.449219 9.644531 -5.890625 9.933594 -8.085938 L 12.824219 -28.648438 Z M 4.621094 -28.648438 "/></g></g></g><g fill="#a2013f" fill-opacity="1"><g transform="translate(38.23609, 64.502477)"><g><path d="M 11.4375 -28.589844 C 9.355469 -28.589844 7.914062 -28.53125 7.105469 -28.417969 C 6.066406 -28.300781 5.3125 -28.011719 4.792969 -27.550781 C 4.273438 -27.089844 3.871094 -26.222656 3.582031 -25.007812 C 3.464844 -24.257812 3.234375 -22.757812 2.886719 -20.445312 C 2.714844 -19.058594 2.425781 -17.039062 2.023438 -14.265625 C 1.675781 -11.492188 1.386719 -9.472656 1.15625 -8.085938 C 0.808594 -5.832031 0.636719 -4.332031 0.578125 -3.523438 L 0.578125 -3.117188 C 0.578125 -2.308594 0.75 -1.675781 0.980469 -1.214844 C 1.328125 -0.75 1.90625 -0.40625 2.714844 -0.230469 C 3.523438 -0.117188 5.3125 0 8.085938 0 L 21.023438 0 C 23.390625 0 24.953125 -0.0585938 25.703125 -0.117188 C 26.859375 -0.230469 27.722656 -0.519531 28.242188 -0.925781 C 28.820312 -1.386719 29.226562 -2.195312 29.457031 -3.234375 C 29.6875 -4.042969 29.917969 -5.660156 30.265625 -8.085938 L 9.355469 -8.085938 L 10.800781 -18.367188 C 10.917969 -18.945312 10.972656 -19.292969 10.972656 -19.523438 C 11.089844 -19.867188 11.207031 -20.101562 11.320312 -20.214844 C 11.4375 -20.332031 11.609375 -20.390625 11.839844 -20.390625 C 11.957031 -20.445312 12.246094 -20.503906 12.589844 -20.503906 C 12.824219 -20.503906 13.109375 -20.445312 13.457031 -20.445312 L 23.796875 -20.445312 C 25.992188 -20.503906 27.433594 -20.5625 28.1875 -20.5625 C 29.574219 -20.675781 30.613281 -21.023438 31.191406 -21.542969 C 31.710938 -22.007812 32.113281 -22.816406 32.34375 -23.910156 C 32.574219 -24.722656 32.808594 -26.28125 33.152344 -28.589844 Z M 11.4375 -28.589844 "/></g></g></g><g fill="#a2013f" fill-opacity="1"><g transform="translate(71.042893, 64.502477)"><g><path d="M 0.578125 -3.464844 L 18.65625 -10.570312 C 19.984375 -11.207031 20.964844 -11.78125 21.601562 -12.246094 C 22.238281 -12.707031 22.699219 -13.167969 22.988281 -13.632812 C 23.335938 -14.09375 23.566406 -14.671875 23.738281 -15.363281 C 23.855469 -15.824219 24.027344 -16.691406 24.199219 -17.964844 C 24.316406 -18.886719 24.375 -19.582031 24.375 -20.101562 C 24.375 -20.910156 24.257812 -21.601562 24.027344 -22.0625 C 23.796875 -22.640625 23.335938 -23.101562 22.640625 -23.449219 C 22.121094 -23.855469 21.3125 -24.257812 20.273438 -24.664062 L 13.863281 -27.722656 L 4.621094 -32.171875 C 4.160156 -29.226562 3.925781 -27.320312 3.925781 -26.394531 C 3.925781 -25.355469 4.214844 -24.488281 4.679688 -23.910156 C 4.96875 -23.566406 5.371094 -23.21875 5.832031 -22.871094 C 6.296875 -22.582031 7.105469 -22.0625 8.316406 -21.371094 L 15.363281 -18.019531 L 7.21875 -14.785156 C 5.660156 -14.207031 4.621094 -13.804688 4.101562 -13.457031 C 3.292969 -12.996094 2.714844 -12.300781 2.308594 -11.4375 C 2.078125 -10.859375 1.789062 -9.933594 1.5 -8.722656 C 1.328125 -7.855469 1.039062 -6.121094 0.578125 -3.464844 Z M 0.578125 -3.464844 "/></g></g></g></svg>