<svg xmlns="http://www.w3.org/2000/svg" viewBox="0 0 3262.15 1008.22"><defs><style>.cls-1{fill:#f2f2f2;}.cls-2{fill:none;}</style></defs><title>logodoinsta</title><g id="olho_esq" data-name="olho esq"><path class="cls-1" d="M207.18,1507.18c1-.52.3-2.19-.75-1.8-22.4,8.43-47.27,22.63-56.5,45.93-.64,1.61,1.56,2.43,2.62,1.53C171,1537.19,185.38,1519,207.18,1507.18Z" transform="translate(-108.85 -1126.25)"/><path class="cls-1" d="M145.17,1603.89c39.19-30.74,74.46-67.37,110.08-102.1,1.09-1.07-.54-2.66-1.67-1.66-37.38,32.81-76.67,65.12-110.35,101.82A1.37,1.37,0,0,0,145.17,1603.89Z" transform="translate(-108.85 -1126.25)"/><path class="cls-1" d="M123.75,1648.23c31.82-18.29,61.64-39.51,88.29-64.8,30.17-28.63,52-64.32,85.8-89.21a1.18,1.18,0,0,0-1.19-2c-30.61,16.39-49.3,46-72.09,71.21a427.82,427.82,0,0,1-102,82.8A1.18,1.18,0,0,0,123.75,1648.23Z" transform="translate(-108.85 -1126.25)"/><path class="cls-1" d="M322.38,1503.41c2.25-1.15.27-4.54-2-3.39-80.7,41.26-110.85,135.9-190.23,180.45-.19.1-.06.43.15.35C216.12,1650.62,242.59,1544.21,322.38,1503.41Z" transform="translate(-108.85 -1126.25)"/><path class="cls-1" d="M136.21,1701.52c84.08-26.77,118-113.09,175.14-172.45,69.87-72.56,163.25-117.36,262.69-130.58,2.46-.32,2.5-4.24,0-3.92-79,10.09-153.36,39.66-216.55,88.45a444.13,444.13,0,0,0-83.68,85.5c-39.44,52.53-71.84,110-137.91,131.87C135.18,1700.62,135.48,1701.75,136.21,1701.52Z" transform="translate(-108.85 -1126.25)"/><path class="cls-1" d="M311.34,1568.79c72-82.66,169.58-146.71,283.39-134.29,2.77.31,2.7-4,0-4.32-80.76-10.24-157.21,21.08-219.1,71.86-36.86,30.25-68.34,66.56-97.64,104-35,44.67-65.75,111.73-133,104.15-.48,0-.57.72-.11.82C222.09,1729.43,271.24,1614.81,311.34,1568.79Z" transform="translate(-108.85 -1126.25)"/><path class="cls-1" d="M298.38,1628.82c80.31-99.6,196.74-164.85,322.68-184.72,3.24-.51,1.86-5.43-1.36-4.93-88.91,13.9-173.09,49.52-243.71,105.63a496.12,496.12,0,0,0-88.76,91.48c-17.52,23.46-32,49.77-52.65,70.72-34,34.44-95.77,52.88-125,1.09-.27-.48-.93-.06-.72.42,15,34.82,52.25,44.91,86.49,31.28C243.45,1720.66,267.83,1666.71,298.38,1628.82Z" transform="translate(-108.85 -1126.25)"/><path class="cls-1" d="M435.66,1548.32c-55.48,69-100.16,151-181.55,192.69-.78.4-.23,1.79.6,1.44,82.56-34.78,141-128.57,189.18-200.74a383,383,0,0,1,40.42-28.2c29.17-17.4,63-27.11,97.24-34.16-.25.31-.31.8.16.87,18.49,2.81,37.87,3.64,55.75-2.71,1-.34.91-2-.27-1.93-18.31,2-35.9,4.73-54.36,3.51,21.26-4.34,42.63-7.67,63.09-11.19,64.55-11.09,129.58-18.94,194.63-26.46,1-.11,1-1.62,0-1.57-26.34,1.21-53.48,2.69-80.93,4.75.21-.82-.06-1.77-1-1.9-8.75-1.22-18.49-3.32-26.38-7.45-8.46-4.44-14.89-11.7-22.64-17.14-9.26-6.51-18.59-9.35-29.22-4.81-1.44.62-.41,2.94,1.06,2.51,7.9-2.33,18.25,1.73,24.12,6.89,3,2.67,5.55,5.87,8.45,8.67a59,59,0,0,0,14.36,10.5,44.55,44.55,0,0,0,12.85,4.21c-89.67,7.62-181.81,22.48-261.21,57.21-47.5,20.78-80.5,53.7-114.73,91.74-48.12,53.49-100.53,102.73-147.14,157.68a.79.79,0,0,0,1.11,1.11c45.81-40.11,88.34-83.53,131.66-126.27C377.66,1601.19,405.64,1573,435.66,1548.32Z" transform="translate(-108.85 -1126.25)"/><path class="cls-1" d="M506.24,1529.24c1.23-.13,1.28-2,0-2-38.89,2.29-53.13,35-72.09,64.45-34.06,53-76.94,98.21-126.66,136.63-1.57,1.22.55,4,2.14,2.78,33.89-26.1,64.94-55.15,92.05-88.31C429.53,1608.76,458.2,1534.41,506.24,1529.24Z" transform="translate(-108.85 -1126.25)"/><path class="cls-1" d="M370.25,1712c26.12-29,49.61-60.23,76.09-89s56.49-54.65,81.24-84.53c.52-.64-.17-1.8-1-1.24-31.49,22.4-58.44,53.28-84.12,82-26,29-52.71,58.81-73.8,91.61A1,1,0,0,0,370.25,1712Z" transform="translate(-108.85 -1126.25)"/><path class="cls-1" d="M459,1413.49c8.14-5.19,16.55-10.36,25.36-14.3,10.68-4.78,21.83-6.84,32.63-11,1.68-.65,2-3.29,0-3.79-22.41-5.48-48.28,8-60.4,26.7A1.77,1.77,0,0,0,459,1413.49Z" transform="translate(-108.85 -1126.25)"/><path class="cls-1" d="M1000.78,1475.37a1,1,0,0,0-1,1.7c45.28,27.45,82.7,62.3,123.88,94.91,1.09.86,3.19-.31,2.15-1.67C1094.46,1529.22,1046.21,1498.53,1000.78,1475.37Z" transform="translate(-108.85 -1126.25)"/><path class="cls-1" d="M1182.76,1608.64c-23.12-34.09-53.56-64.52-81.55-94.64-22.11-23.79-45-56.58-78.34-63.85a1,1,0,0,0-.52,1.89c34.91,9.52,63.93,52.17,87.64,78.32s45.45,55.06,70.61,79.94C1181.67,1611.37,1183.66,1610,1182.76,1608.64Z" transform="translate(-108.85 -1126.25)"/><path class="cls-1" d="M1238.09,1659.33c7.5-39.41-27.28-64.73-52.87-89.63-44.26-43.06-88.28-86.29-133.79-128-.37-.34-.91.19-.56.55,31,32.54,62.74,64.22,94.71,95.82,33.64,33.25,86.77,70.34,89.43,120.87C1235.1,1660.58,1237.75,1661.16,1238.09,1659.33Z" transform="translate(-108.85 -1126.25)"/><path class="cls-1" d="M1255.31,1689.12c14.58-28,2.71-62.93-18.67-83.79-.68-.67-2.1,0-1.71,1q1.77,4.58,3.56,9.15a.39.39,0,0,0,.75-.2c-3-12.21,5.18,5.23,6.36,7.71a104.9,104.9,0,0,1,7.81,22.55c3.1,14.44,1,28.44-.66,42.88C1252.59,1689.8,1254.71,1690.27,1255.31,1689.12Z" transform="translate(-108.85 -1126.25)"/><path class="cls-1" d="M1197.78,1622.21a1,1,0,0,0-1.89.52c5.29,31.13-29.93,62.48-46.16,85.2-.68,1,.66,2.27,1.61,1.62C1174.71,1693.4,1206.21,1652.19,1197.78,1622.21Z" transform="translate(-108.85 -1126.25)"/><path class="cls-1" d="M1126.94,1699.94c-70.72,12.35-133.11,42-186.65,90-.77.69.34,1.71,1.11,1.11,55.31-42.84,117.94-73.08,186.17-88.79C1129.07,1701.86,1128.41,1699.68,1126.94,1699.94Z" transform="translate(-108.85 -1126.25)"/><path class="cls-1" d="M1030,1708.83c-59,23.75-116.46,52.29-174.35,78.62-1.16.52-.16,2.2,1,1.69,58-25.81,117.43-49.81,174.26-78.16C1032,1710.39,1031.2,1708.32,1030,1708.83Z" transform="translate(-108.85 -1126.25)"/><path class="cls-1" d="M1154.34,1717.36c-54.5,20.15-109.2,40.14-162.81,62.58-37.73,15.78-74.26,34.19-101.64,65.26a.79.79,0,0,0,1.11,1.11c72.17-65.62,175.07-91.12,263.76-127.44C1155.67,1718.5,1155.31,1717,1154.34,1717.36Z" transform="translate(-108.85 -1126.25)"/><path class="cls-1" d="M1163.24,1740.19c-69.08,22.92-137,53.4-195.64,97.09-1,.73-.14,2.33,1,1.69,63.86-35.9,126.61-70.6,195-97.65C1164.24,1741.05,1164,1739.94,1163.24,1740.19Z" transform="translate(-108.85 -1126.25)"/><path class="cls-1" d="M926.32,1863.66c55.89-12.61,108.3-34.72,155.71-67.06.62-.42,0-1.42-.6-1-48.58,30.31-99.88,52.72-155.53,66.55C924.92,1862.39,925.34,1863.88,926.32,1863.66Z" transform="translate(-108.85 -1126.25)"/><path class="cls-1" d="M1085.53,1823.35c-57.15,51.49-142.21,31.84-201.42,78.34-.88.68.27,2.16,1.19,1.54,61.75-42,147-24.27,201.34-78.77C1087.36,1823.74,1086.28,1822.67,1085.53,1823.35Z" transform="translate(-108.85 -1126.25)"/><path class="cls-1" d="M872.09,1916c72.41,9,146.29-18.43,202.84-62.55.53-.41-.15-1.28-.71-.92-63.54,41.32-127.49,56.16-202.13,61.9A.79.79,0,0,0,872.09,1916Z" transform="translate(-108.85 -1126.25)"/><path class="cls-1" d="M838.44,1957.52c59.47-23.56,127.46-14.61,183.62-46.2,1.34-.75.16-2.66-1.19-2-57.44,26.92-130,10.4-183.34,46.07C836.49,1956.06,837.12,1958,838.44,1957.52Z" transform="translate(-108.85 -1126.25)"/><path class="cls-1" d="M966.24,1951.09c-67.42,15.52-153.38,1.34-212.94,41-1.55,1-.59,4,1.37,3.23,68.9-28.19,144.61-12.4,212.33-42.48C968.05,1952.41,967.28,1950.85,966.24,1951.09Z" transform="translate(-108.85 -1126.25)"/><path class="cls-1" d="M717.52,2012a.79.79,0,0,0,0,1.57c48.22.33,95.86-4.47,142.31-17.69a1,1,0,0,0-.52-1.89C812.45,2004.49,765.59,2011.55,717.52,2012Z" transform="translate(-108.85 -1126.25)"/><path class="cls-1" d="M619.78,1904.76c1.21-1-.17-2.46-1.33-2.3-18.81,2.65-32.21-3.54-50-7.16-9.57-2-18.3-1.1-27,3.49a1,1,0,0,0,.76,1.8C567.5,1892,597.28,1922.83,619.78,1904.76Z" transform="translate(-108.85 -1126.25)"/><path class="cls-1" d="M649.21,1929.12a1.19,1.19,0,0,0-.91-2.16c-15.51,2.87-28.24,1.84-43.65-1-10.32-1.9-19.9-2.14-30.14.43-1.25.31-1,2.48.31,2.31C597.53,1926,628.81,1944.39,649.21,1929.12Z" transform="translate(-108.85 -1126.25)"/><path class="cls-1" d="M596.84,1955.18c-.62.17-.52,1.23.16,1.16a291.48,291.48,0,0,1,29.85-1.33c9.95,0,20.07,2.4,29.88,1.38.87-.09,1.47-1.36.5-1.83C639.6,1946,615,1950.31,596.84,1955.18Z" transform="translate(-108.85 -1126.25)"/><path class="cls-1" d="M282.58,1765.21c.63-1.11-.58-2.06-1.61-1.61-6.15,2.69-11.42,7.51-17.56,10.53a78.74,78.74,0,0,1-21.32,7.23c-1.09.19-.84,2,.26,1.92C255.82,1782.58,275.35,1778,282.58,1765.21Z" transform="translate(-108.85 -1126.25)"/><path class="cls-1" d="M294.24,1791.85c.41-1-.52-2.33-1.62-1.61-8.65,5.69-16.33,10.78-27.17,8a2,2,0,0,0-1,3.79C274.57,1805,289.61,1802.58,294.24,1791.85Z" transform="translate(-108.85 -1126.25)"/><path class="cls-1" d="M322.11,1805.27a1.6,1.6,0,0,0-2-1.51c-3.24.53-4.21,1.78-6.52,4.1a70.17,70.17,0,0,1-11.77,9.76,100.78,100.78,0,0,1-25,11.48,1.18,1.18,0,0,0,.31,2.31c10.3-.36,19.2-2.69,28.05-8.1C311.2,1819.62,322.35,1813.19,322.11,1805.27Z" transform="translate(-108.85 -1126.25)"/><path class="cls-1" d="M338.39,1829.34c-4.86,6.65-11.17,12.59-19.5,14.24-1.17.24-.76,1.83.26,1.93,10.42,1.07,20.67-3.79,24.36-14C344.67,1828.29,340.12,1827,338.39,1829.34Z" transform="translate(-108.85 -1126.25)"/><path class="cls-1" d="M351.67,1856.18l-.64-.49a3.15,3.15,0,0,0-1.58-.43,2.47,2.47,0,0,0-1.21.27,2.41,2.41,0,0,0-1,.65,2.29,2.29,0,0,0-.65,1,2.31,2.31,0,0,0-.27,1.21c0,.28.07.56.11.84a3.12,3.12,0,0,0,.81,1.38l.63.49a3.06,3.06,0,0,0,1.59.43,2.31,2.31,0,0,0,1.21-.27,2.29,2.29,0,0,0,1-.65,2.32,2.32,0,0,0,.65-1,2.47,2.47,0,0,0,.27-1.21l-.11-.83A3.16,3.16,0,0,0,351.67,1856.18Z" transform="translate(-108.85 -1126.25)"/><path class="cls-1" d="M803.3,1841.32c-132.41,22-264.07,4-387.47-47.8-21.58-17.08-42.93-35.1-68.31-43.71-.43-.14-.66.49-.3.72,80.72,52.13,147.14,112.93,247.27,124.84,1.34.16,1.57-2,.32-2.31-51.33-13.67-99.82-28.56-146-55.94a276.51,276.51,0,0,1-28.77-20.26c120.13,56.78,254,72.65,384.78,50.14C808.6,1846.35,807,1840.7,803.3,1841.32Z" transform="translate(-108.85 -1126.25)"/><path class="cls-1" d="M559.21,1825.3c65.94,9.51,137,13,202.78.61,1.09-.2.84-2-.26-1.93-70.56,2.74-139,6.89-209.28-4.37-61.65-9.86-112.35-42.21-166.27-71.66a.59.59,0,0,0-.6,1C442.42,1782.52,492.73,1815.71,559.21,1825.3Z" transform="translate(-108.85 -1126.25)"/><path class="cls-1" d="M394.33,1728.26c90.47,68.28,215.06,104.34,328,84.86,2.17-.37,1.68-4-.52-3.85-120,7.07-225.37-15.32-326.64-82.36C394.27,1726.34,393.55,1727.67,394.33,1728.26Z" transform="translate(-108.85 -1126.25)"/><path class="cls-1" d="M420.27,1722.41c81.47,47.38,182,80.58,277.29,71a1.57,1.57,0,0,0,0-3.14c-99.71-6-187.48-20.48-275.9-70.28A1.37,1.37,0,0,0,420.27,1722.41Z" transform="translate(-108.85 -1126.25)"/><path class="cls-1" d="M665.27,1773.81c1.32-.21,1-2.34-.32-2.31-75.75,1.43-139.54-12.55-205.09-51.83-.89-.53-1.59.77-.79,1.35C517.05,1763.86,593.52,1785.36,665.27,1773.81Z" transform="translate(-108.85 -1126.25)"/><path class="cls-1" d="M759.71,1958.06c-1.18,1,.38,3,1.67,2.16,27-18.3,34.33-51.29,21-80.39-.55-1.19-2.66-.33-2.15.91C792,1909.49,783.08,1938.4,759.71,1958.06Z" transform="translate(-108.85 -1126.25)"/><path class="cls-1" d="M822.58,2015.52c-38.27,22.35-80.17,16.39-122.26,23-.23,0-.16.37,0,.38,38,1.93,92.17,3.84,123.63-21.52C825.06,2016.52,823.7,2014.86,822.58,2015.52Z" transform="translate(-108.85 -1126.25)"/><path class="cls-1" d="M1144.18,1850.29c.39-.54-.5-1.23-.93-.72-44.71,54-113.86,97.93-173.3,134.66-72.66,44.9-148.3,65.48-232.52,75.13-.73.09-.78,1.19,0,1.18,81-1.12,158.86-28.9,228.07-69.69C1027.68,1954.19,1101.51,1909.84,1144.18,1850.29Z" transform="translate(-108.85 -1126.25)"/><path class="cls-1" d="M1165.15,1854c1.31-1.83,2.63-3.64,3.8-5.54,3.72-6,9.32-14,10.88-21.73a99,99,0,0,0,16.16-26.31c19.92-21.51,40.73-42.24,64.4-59.67,20.19-14.87,43.33-25.67,62.67-41.61,18-14.83,31.37-37.11,35.5-60.43,9.29-29.89.4-74.86-17.24-94.22-5.43-6-17.4-1.55-16.65,6.9,1.63,18.46,10.63,35.48,14.12,53.77,2.21,11.6,2.27,23.72,4.36,35.32-.27,10.1-1.38,20.13-5.46,29.89-11.4,27.25-52.68,42.89-75.6,59.25-26.62,19-49.79,40.95-68.81,66.83-5.37,6.46-9.36,13.56-14.19,20.56-.68,1-1.44,1.83-2.16,2.76a24.54,24.54,0,0,0-6,7q-3.81,3.92-8,7.53c-.46.38-.91.79-1.36,1.21-2.06,1.77-4.17,3.54-6.32,5.36-6.77,5.75-12.08,11.31-16,17.93-11.34,13.55-23.16,26.83-35.82,39.21-6.17,3.63-12,8.63-17.36,13.54q-2.08,1.54-4.09,3.23a393.53,393.53,0,0,0-37.29,30.08c-35,25.35-67.22,53.41-105.53,74.68-46.7,25.93-96.54,44.35-148.08,58a1.18,1.18,0,0,0,.62,2.28c84-18.39,182.68-57.64,247.15-120.39a29,29,0,0,1,12.91-1.46,22.68,22.68,0,0,1,2.65,1.43c.84.63,1.68,1.35,2.53,2.05-35.83,34.28-68.83,68.21-112.8,92.95-44.2,24.86-92.07,40.26-142.08,47.68-1.51.22-1.17,2.9.37,2.7,93.27-12.15,198.24-57.7,254.6-136.92q2.43-2.14,4.79-4.34a5.63,5.63,0,0,0,.59,0,1.75,1.75,0,0,0,1.24-1.24c0-.17,0-.33,0-.51,7.22-6.85,14-14,20.73-21.38a8.91,8.91,0,0,0,.72,3.86c-21.52,56.32-45.24,103.7-100.68,134.23-43,23.65-91.44,33.66-135.75,54.14-1,.47-.3,2.11.76,1.79,93.7-28.4,225.93-66.62,240.07-181.23a2.42,2.42,0,0,0,.78,1.1,121.4,121.4,0,0,0-4.8,31.39.2.2,0,0,0,.39,0c9.85-24.62,18.21-49.58,32.71-72,13.5-20.9,31.78-37.59,46.08-57.72A2.28,2.28,0,0,0,1165.15,1854ZM1123,1891.76a1.38,1.38,0,0,0-.38-.42,179.92,179.92,0,0,1,14.74-18.89.49.49,0,0,0,.74,0c3.25-3.75,6.62-7.39,10-11.06,2.39-2.29,4.73-4.61,7.25-6.78a.6.6,0,0,0-.26-1l2.85-3.17c.69-.76,1.49-1.54,2.33-2.34q-2.4,4.47-4.82,8.91A249.56,249.56,0,0,0,1123,1891.76Zm-32.88,42.33,2.21-2.44c-.38,1.26-.68,2.52-1,3.78C1091,1935,1090.6,1934.51,1090.16,1934.09Zm-31.32,14a17.38,17.38,0,0,1-2.9.9l3.53-2.92C1059.26,1946.7,1059,1947.37,1058.84,1948.05Zm-7,1.38a16.72,16.72,0,0,1-2.83-.24c3.62-3.9,7.18-7.84,10.52-11.9a1.34,1.34,0,0,0,0-1.57c2-1.48,4.16-2.83,6.18-4.35A145.06,145.06,0,0,0,1051.79,1949.43Zm-5.52,2.67,2-2.1a18.43,18.43,0,0,0,2.35,1.26c-.23.35-.47.68-.69,1A25.82,25.82,0,0,0,1046.27,1952.1Zm9.64,1.63a26,26,0,0,0-4.33-1.18l.8-.67a16.28,16.28,0,0,0,5.5.78c-.09.62-.12,1.24-.18,1.85C1057.07,1954.21,1056.45,1953.93,1055.91,1953.73Zm84.62-88.83c-.57.5-1.14,1-1.71,1.49a59.41,59.41,0,0,1,3.67-5C1141.83,1862.54,1141.15,1863.7,1140.53,1864.9Zm-5,1.91c-.43,1.19-.85,2.39-1.2,3.65a200.06,200.06,0,0,0-21.39,23.35,35.67,35.67,0,0,0-3.5,1.25A215.27,215.27,0,0,0,1135.56,1866.81Zm-73.17,91a10.42,10.42,0,0,0-1.58-1.45,102.93,102.93,0,0,0,8-7.07C1066.66,1952.14,1064.49,1955,1062.39,1957.86Z" transform="translate(-108.85 -1126.25)"/><path class="cls-1" d="M959.33,1978.23c69.48-40.13,139.6-83.77,182.31-153.92,27.35-44.93,52.85-73.21,98-100.54,26.34-16,55.78-32.85,69.29-61.75.62-1.31-1-2.91-2.15-1.66-45.65,51.37-116.51,71.75-153.69,130.88-23.75,37.78-44.48,73-78.35,103.08-35.52,31.56-76.37,56.85-116.38,82.21A1,1,0,0,0,959.33,1978.23Z" transform="translate(-108.85 -1126.25)"/><path class="cls-1" d="M1303,1743.37c-35.19,19.18-65.79,41.55-92.82,71.14a.39.39,0,0,0,.55.55c28.26-23.55,57.93-45.71,90.48-63,24.7-13.12,51.88-23.09,72-43.33,23-23.12,38.88-65.8,8.38-89.15a1.38,1.38,0,0,0-2,1.55C1404.88,1685.59,1352.57,1716.34,1303,1743.37Z" transform="translate(-108.85 -1126.25)"/><path class="cls-1" d="M1437.23,1710.94c1.57-2.3-1.8-4.58-3.7-2.85-55,49.82-114.44,76.79-178.53,112-40.46,22.25-93.28,54.72-107,101.94-.18.63.78,1.06,1.08.45C1206.06,1806.47,1368,1812.78,1437.23,1710.94Z" transform="translate(-108.85 -1126.25)"/><path class="cls-1" d="M1459.2,1690.87a1,1,0,0,0-1.9.52c14.35,64.19-114.58,107.53-155.73,130.1-41.67,22.86-81.26,50.44-101.76,94.58a1.18,1.18,0,0,0,2,1.19c47.15-68,117.72-93,186.36-132.72C1421.23,1765.45,1474.27,1736.35,1459.2,1690.87Z" transform="translate(-108.85 -1126.25)"/><path class="cls-1" d="M1424.47,1786.79c31.25-24.58,57.37-51.22,67.36-89.16a1.19,1.19,0,0,0,1.41-.77c6.44-23.35-.59-53.08-8-75.49-.07-.2-.42-.18-.39.05,1.56,13.33,3,26.83,3.92,40.22.73,10.48.11,21.08,1.67,31.44-27.33,93.32-154.42,114.39-173.19,215.31-.42,2.22,2.87,4,3.94,1.66C1346.24,1854.44,1377.27,1823.93,1424.47,1786.79Z" transform="translate(-108.85 -1126.25)"/><path class="cls-1" d="M1485.49,1762.18c32.13-33.59,41.58-77.47,30.57-122-.79-3.19-5.71-1.84-4.92,1.35,22.2,89.79-44,129.27-106.87,174-34,24.19-59.55,51.35-62.87,94.44-.05.66,1,.82,1.15.16C1354.73,1831.15,1437.13,1812.73,1485.49,1762.18Z" transform="translate(-108.85 -1126.25)"/><path class="cls-1" d="M1476.64,1794.27c29.51-21.65,51.42-48.58,52.25-86.32.07-3.54-5.42-3.54-5.5,0-1.7,72.57-78.89,90.75-123,132.82-29.29,28-42.94,62.91-44.9,102.84,0,.43.71.54.77.1,4.54-33,17-64.55,39.42-89.79C1418.35,1828.41,1449.6,1814.12,1476.64,1794.27Z" transform="translate(-108.85 -1126.25)"/><path class="cls-1" d="M1509.25,1790.91c44.6-45.69,62.38-103,41.92-164.49-1.19-3.58-6.88-2-5.67,1.57,33.74,101.06-39.53,155.49-103.87,216.57-45.61,43.3-72.8,97.87-66.85,161.77a.39.39,0,0,0,.78,0c1.11-53.18,16.35-100.83,52.68-140.56C1453.11,1838.58,1483.55,1817.24,1509.25,1790.91Z" transform="translate(-108.85 -1126.25)"/><path class="cls-1" d="M1564.07,1658.79c34.17,91.45-58.28,145.69-111.21,201.85-37.37,39.63-58,86.62-59.64,141.25,0,1,1.45,1,1.57,0,5.57-46.9,22.37-91.27,53.35-127.38,23-26.79,51.7-47.8,76.28-73,38.55-39.48,65.94-89.13,45.33-144.29C1568.43,1653.71,1562.74,1655.23,1564.07,1658.79Z" transform="translate(-108.85 -1126.25)"/><path class="cls-1" d="M1579.24,1579.68c-.18-.11-.41.16-.23.31a30,30,0,0,1,10,14.29c1.51,4.75,1,9.9,2.39,14.58a1.2,1.2,0,0,0,2.16.28C1599.23,1598.52,1587.89,1584.68,1579.24,1579.68Z" transform="translate(-108.85 -1126.25)"/><path class="cls-1" d="M1598.05,1566.75c-.37-.26-.79.31-.48.62,9.19,9,10.51,19.76,12.89,31.68.24,1.21,1.94,1,2.27,0C1616.77,1586.59,1607.82,1573.63,1598.05,1566.75Z" transform="translate(-108.85 -1126.25)"/><path class="cls-1" d="M1498.75,1591.74a3,3,0,0,0,2.27.29c.11,0,.19-.13.29-.17h.15a2.43,2.43,0,0,0,1.13-.6,2.49,2.49,0,0,0,.86-.93,3.31,3.31,0,0,0,.45-1.68,1.76,1.76,0,0,0-.06-.46,2.48,2.48,0,0,0-.39-1.23,3.69,3.69,0,0,0-1.2-1.19,3.31,3.31,0,0,0-1.68-.45,2.43,2.43,0,0,0-1.28.28,2.54,2.54,0,0,0-1.07.69,3.33,3.33,0,0,0-.86,1.47,3.89,3.89,0,0,0-.17,1.11,3.39,3.39,0,0,0,.29,1.39,2.37,2.37,0,0,0,.64,1A2.73,2.73,0,0,0,1498.75,1591.74Zm4.11-2.31a2.48,2.48,0,0,0-.31-1.15l.23.54Zm-1.81,2.43h0l-.62.09-.71-.1A3.46,3.46,0,0,0,1501.05,1591.86Z" transform="translate(-108.85 -1126.25)"/><path class="cls-1" d="M1360.65,1529.41c-64.4-40.53-115-85.49-145.39-157-.17-.41-.86-.12-.71.3,16.86,46.3,42.62,86.82,79.85,119.48,43.7,38.34,99.15,56.47,119.14,108.22a1.83,1.83,0,0,0-1.15,2.08c2.57,8.93,5.55,18.08,7.94,27.36.25,2.42.62,4.71.74,7.25a1.65,1.65,0,0,0,1.29,1.59c2.63,12.87,3.53,25.92,0,38.9-9.45,34.84-42.87,47.82-72.36,60-25,10.37-49.19,20.65-63.81,44.55a.59.59,0,0,0,.92.71c38.68-36.06,99.61-38.62,132.6-80.94,20.27-26,27.27-62.16,8.66-88C1426.68,1577.71,1389.87,1547.79,1360.65,1529.41Z" transform="translate(-108.85 -1126.25)"/><path class="cls-1" d="M1535.51,1390.53c-33.94-32.93-67.31-66.44-103.27-97.18a.59.59,0,0,0-.84.83c39.6,42.18,84.36,79,124.65,120.35,35.59,36.57,45.09,88.64-5.06,119.2-37,22.58-80.4,27.9-111.68-5.54-23.41-25-29.73-34.68-64.92-35.33-58.9-1.08-93.39-75.19-128.34-117.6-.71-.86-2.17.26-1.54,1.19,31.56,46.79,62.89,117,123.58,123.24,18.74,1.94,37.66,4.68,51.43,17.46,7.54,7,11.9,16.86,18.73,24.48,5,5.53,10.28,11.76,17,15.3,21.9,11.56,48.23,3.19,69.5-5.25,39.32-15.59,87.08-51.17,66.42-99.53C1580.5,1427.15,1554.39,1408.85,1535.51,1390.53Z" transform="translate(-108.85 -1126.25)"/><path class="cls-1" d="M1500.76,1407.73c16.59,17.94,53.64,49.85,52.1,75.45l-72.29,35q-5.34-3.32-10.7-6.61c-10.47-4.76-20.33-15.89-29.54-22.66-22.65-16.66-37.58-22.55-64.59-24-23.85-1.23-43.71-5-59.55-23.61s-30.91-37.5-47.32-55.46c-.88-1-2.64.33-1.85,1.43,17.46,24.07,35.28,52.71,57.17,72.75,16.41,15,23.93,11.82,45.06,13,44.41,2.58,61.58,25.6,95.74,46.82,16.65,10.34,35.25,17.14,54.87,12.33,32.52-8,47.86-42.51,33.85-72.67-11-23.57-36.91-43-54.35-61.57-12.55-13.35-25-26.83-37.67-40-10-10.41-25.27-33.17-37.67-39.62.68.35,1.26-.63.6-1l-7.15-4.23a.82.82,0,0,0-1,1.28Q1458.12,1361.59,1500.76,1407.73Z" transform="translate(-108.85 -1126.25)"/><path class="cls-1" d="M1471.63,1397.21c12.34,11.55,29.31,23.36,38.25,38q31.2,28.32-32.68,56.08a151.41,151.41,0,0,1-26.57-23.45c-51.38-45.9-127.61-27.62-156.93-103.24-.36-.92-1.83-.56-1.52.42,13.74,43.57,43.52,64.77,86.45,75.47,20.77,5.17,40.06,10.26,58,23.11,10.7,7.68,17.7,20,28.36,27.83,11.26,8.31,25.91,16.41,40.57,13,93.75-21.94-88.79-168.61-106.72-182.7a2,2,0,0,0-2.78,2.78C1419.11,1350.57,1446.19,1373.38,1471.63,1397.21Z" transform="translate(-108.85 -1126.25)"/><path class="cls-1" d="M1330.49,1342.7c20.13,22.61,42.9,40.71,69,56.06,12.3,7.24,46.38,33.86,61.37,28.61,30.88-10.81-56.14-65.56-66-71.12-1.12-.62-2.5,1-1.43,1.85,14.66,11.92,29.77,23.33,44.09,35.65,1.58,1.36,21.37,17.26,21,19.21-2.25,11.93-29.48-5.1-33-6.93-28.77-15.16-55.18-32.11-80-52.54a1.62,1.62,0,0,0-.08-.85c-9.52-21.61-20-40.37-24.55-64-4.06-21.18-6.47-42.7-10.25-64-.27-1.52-2.78-1.17-2.7.37,1.95,33.79,1.16,85.59,22.86,116.39A.75.75,0,0,0,1330.49,1342.7Z" transform="translate(-108.85 -1126.25)"/><path class="cls-1" d="M1469.38,1287c3.86,4.51,6.77,9.81,11.54,13.43,1,.77,2.32-.29,2.36-1.35.55-13.1-14.65-25-26-28a1.58,1.58,0,0,0-1.53,2.62C1460.35,1277.91,1465.29,1282.2,1469.38,1287Z" transform="translate(-108.85 -1126.25)"/><path class="cls-1" d="M1494.05,1283.79c5.24,7.91,7.69,17.47,14.2,24.43a1.78,1.78,0,0,0,3-.77c4.23-10.63-2.46-23.32-9.09-31.65-7-8.86-17-16.28-28.28-18a1.19,1.19,0,0,0-1.15,2C1480.39,1267.55,1488,1274.57,1494.05,1283.79Z" transform="translate(-108.85 -1126.25)"/><path class="cls-1" d="M1489.67,1241.39c.87-2,24,27.46,25.89,30.6,7.64,12.83,14.75,25.73,20.2,39.67a2,2,0,0,0,3.86-.53c1.05-31.83-17.49-67-49.25-77.42a2.17,2.17,0,0,0-2.72,2.08l.19,5.11C1487.87,1241.78,1489.25,1242.34,1489.67,1241.39Z" transform="translate(-108.85 -1126.25)"/><path class="cls-1" d="M1384,1356.89c1.2,1.65,4.4.75,3.59-1.51-9.47-26.51,0-53.1-7.34-79.42-4.11-14.73-12.83-25.84-28.11-28.62-.82-.15-1.45,1-.61,1.43C1394.16,1270.6,1360.37,1324.3,1384,1356.89Z" transform="translate(-108.85 -1126.25)"/><path class="cls-1" d="M1251.83,1257.52q6.66,3.92,13.31,7.84l4.18,9.85c1.43,3.34,2.83,6.7,4.33,10l.09.2a31.83,31.83,0,0,0,1.84,7.18,1.48,1.48,0,0,0,1.92.86c4.76,10.22,9.68,20.38,14.5,30.56,8.73,18.47,14.94,41.44,31.5,54.14a1.3,1.3,0,0,0,.67.22,107.52,107.52,0,0,0,52.67,41.57c21.76,8,45.3,7.53,63.93,23.54,11.69,10,17,23.58,33.23,27.28,17.68,4,30.64-6.39,27.61-24.47-5.51-32.94-54-68.19-80.87-83.85a1.38,1.38,0,0,0-1.67,2.16c15.8,15.91,46.78,34.18,56.51,54.36q24.64,18-16.42,32l-6.13-6.83c-6.63-4-11.18-11.68-18.33-15.75-15.32-8.71-33.44-8.59-50-13.5-24.26-7.2-43.79-22-58.67-41.27-.72-12.82-6.94-22.77-12.83-34.5-8.55-17-17-34.09-25.65-51.05-1.63-3.18-3.25-6.53-5-9.88a72.65,72.65,0,0,0-2.1-16.12c-2.9-13.34-9-23.45-18.61-33a1.38,1.38,0,0,0-2.16,1.67,118.24,118.24,0,0,1,11.64,30c-5.61-6.24-12.68-10.47-22.44-10.19a1.61,1.61,0,0,0-1.37,2.38l2.5,5.34C1250.52,1259.31,1252.08,1258.56,1251.83,1257.52Z" transform="translate(-108.85 -1126.25)"/><path class="cls-1" d="M846.78,1475.72c-1.31-.12-1.63,2.11-.31,2.32,47.37,7.45,92.9-26.84,138-1.35,1.67,1,3.77-1.49,2.14-2.77C946.3,1442.3,891.17,1479.74,846.78,1475.72Z" transform="translate(-108.85 -1126.25)"/><path class="cls-1" d="M970.29,1419.71c-9.94,0-20.38,2.86-29.95,4.29-19.1,2.86-39.74,3.54-57.21,12.23a2.37,2.37,0,0,0,.56,4.3c19.16,3.75,39.26-1.06,58.43-3.36,1.63-.19,3.3-.34,5-.49.1,0,.18.06.29,0l.35-.09c12.5-1,26.12-1.47,36.07-8.72,30.41-6.16,60.44-7.32,89.57,10.45,30.84,18.82,46.93,53,77.6,72,20.8,12.93,29.85,18.06,47,34.6,11.6,11.19,24.63,20.7,36.13,32,19.54,19.16,30.86,48.12,54.67,61.25a1.38,1.38,0,0,0,2-.82c4.1-27.81-21.74-49.56-40.14-67.86-13.46-13.39-26.68-27.24-41-39.64-23.11-20-34.66-44-57.43-63.63-6.66-5.74-13.82-11.78-21.35-17.78,3.67-19.79-11.87-41.71-27.22-54.47-21-17.41-53-25.11-77.55-10.75a.59.59,0,0,0,.29,1.09c24.8.29,49.85,3.84,66.76,24.16,4.83,5.81,7.87,12.7,10.35,20-16.67-11-34.29-20.1-51.88-24.42C1023.2,1397,995.41,1406.14,970.29,1419.71Z" transform="translate(-108.85 -1126.25)"/><path class="cls-1" d="M1192.9,1493.26c18.63,21.37,38.89,40.42,55.78,63.41,9.73,13.26,13.27,23.08,28.76,28.47a3.93,3.93,0,0,0,4.44-1.8c17.15-36.87-40.83-74.92-63.14-95.2-40-36.32-61.53-92.14-111.19-117.27-3.21-1.62-7,2.59-4,5.25C1140.32,1409,1160.57,1456.16,1192.9,1493.26Z" transform="translate(-108.85 -1126.25)"/><path class="cls-1" d="M1312.34,1570c4.52-42.35-41.82-72.81-67.95-99.45-32.41-33-48.53-84.42-90.31-107.12a1,1,0,0,0-1.18,1.55c31.52,33.71,42.08,80.62,72.63,116,25.22,29.17,52.48,69.09,84.45,90.41A1.59,1.59,0,0,0,1312.34,1570Z" transform="translate(-108.85 -1126.25)"/><path class="cls-1" d="M184.81,1354.35c19.88-3.15,24.11-23.09,31.25-39a134.34,134.34,0,0,1,21.4-34.06c8.49-9.73,19.5-16.35,27.92-25.91,1.09-1.24.07-3.52-1.72-2.95-16,5.11-29.3,20.69-39,33.89a125.48,125.48,0,0,0-15.88,28.17c-5.65,14.42-5.34,32.86-24.5,38C183,1352.79,183.59,1354.54,184.81,1354.35Z" transform="translate(-108.85 -1126.25)"/><path class="cls-1" d="M195.92,1369.87c-.73.64.21,1.55,1,1.23,22.54-9.58,40.58-26.91,54.41-47,7.61-11,12.9-22.65,18.46-34.77s12.95-20.66,19.68-31.82a1.39,1.39,0,0,0-1.55-2c-19.31,4.16-24.81,32.22-32.77,47.34C240.64,1330.26,218.88,1349.8,195.92,1369.87Z" transform="translate(-108.85 -1126.25)"/><path class="cls-1" d="M129.49,1433.39c.55,0,.52-.9,0-.84q4.32-6.37,10.79-7.17,1.92-.26,3.81-.69c5.48-1.85,11.39-2.83,16.93-4.72a206.94,206.94,0,0,0,26.61-11.21c18.29-9.27,38.22-21.82,51-38.14,1.23-1.57-.4-4.53-2.38-3.08-15.18,11.06-28.72,23.68-45.33,32.84-18.56,10.23-40,12.74-58.31,22.18C128.68,1424.56,118.75,1433.21,129.49,1433.39Z" transform="translate(-108.85 -1126.25)"/><path class="cls-1" d="M322.88,1197.71c17.44-14.25,35.15-27.26,56.25-35.62,17.57-6.95,36-6.09,53.44-11.81,3.79-1.25,4.42-7.4,0-8.33-38.49-8.15-89.91,24.46-111.54,54.33C320.19,1197.45,321.93,1198.49,322.88,1197.71Z" transform="translate(-108.85 -1126.25)"/><path class="cls-1" d="M320,1239.29c18.47-5,32.29-16,45.93-29a191.56,191.56,0,0,1,26.46-21.59c6.46-4.3,12.43-7.72,16.8-14,29.43,3.12,52.56,7.74,46.24,19.34-31.12,1.87-41.61,10.27-50.88,19.06-95.42,14.14-138.33,150.93-202.12,208.11a.79.79,0,0,0,1,1.23c35.56-23.19,58-53.44,81.19-88.43,32-48.19,62.71-87,113-108.74-1,9.13,2,15.5,7.33,19.91-53.57,7.24-85.71,91.48-115.86,124.94-.57.65.16,1.72,1,1.24,22.91-13.84,36.48-35.1,51.11-57,12.58-18.84,24.81-32.93,40.09-43.16-10.19,11.58-17.29,24.4-18.68,39.84-.09,1,1.35,1.28,1.83.5,9.85-16.35,20.81-30.34,36.87-41,2.53-1.68,14-6.75,17.95-12a56.73,56.73,0,0,0,9.35,7.51c-18.76,6.69-33.64,20.4-41.76,40.68-.53,1.32,1.44,1.92,2.15.91,9.76-13.86,24.24-24.13,40-30.25a61,61,0,0,1,13.8-3.36c35.62,17.36,97.8,31.93,146.71,20.45a125.85,125.85,0,0,1,58.64-8.37c17.32,31.08,54.44,29.31,88,37.69l96.33,12.56a267.57,267.57,0,0,0,27.46,3.77,117,117,0,0,1-8.52,9.5c-13,12.59-27.64,23.24-40.41,35.94a2.1,2.1,0,0,0,.42,3.26l2.22,1.34a1.39,1.39,0,0,0,1.88-1.88c1.64,3,40-28,43.35-31.2,4.89-4.71,10.94-10.14,16.36-16.09,31.65.9,64.36-4,95.44-17.2a54.64,54.64,0,0,0,10.55,15.26c-14.19,5.39-27.91,13.37-40.63,20.24-22.43,12.1-43.43,25.26-62.22,42.49-.67.62.19,1.68.95,1.24,20.42-11.68,40-24.7,60.73-35.92,15.33-8.31,32.66-14.21,48.31-22.26,14,9.08,31.58,8.93,49.32,8.31-12.24,3.27-24.14,9.67-35.85,14.64-35,14.84-70,29.65-104.48,45.66-1,.46-.29,2.19.76,1.79,27.67-10.48,55-21.58,82.29-33,26.65-11.13,56.08-29.29,85.54-25.59,2.06.26,2.27-2.88.47-3.47a43,43,0,0,0-8.06-1.81c15.63-4.77,30.12-5.71,42.16,1.72h83.76l22.17-2c11.52,3.65,22.61,10.66,28.83,20.32a1.19,1.19,0,0,0,2.2-.59c.3-8.76-1.87-16.06-7.31-21.89l24.12-2.19c2.57,2.66,5.19,5.25,7.1,8.57a58.69,58.69,0,0,1,6.75,17.11c.26,1.27,1.87,1,2.27,0a38,38,0,0,0,1.76-22.23,35.31,35.31,0,0,1,4.6,5.9,2,2,0,0,0,3.59-.47c1.46-6.63.93-11.85-2.24-17.34,4.1-3.51,6.5-7.75,8.33-13,.84-2.44-2.09-4.18-4.1-3.14a77.05,77.05,0,0,1-14.21,5.41,22.19,22.19,0,0,0-3-1.52l-10.12-16.88a8.46,8.46,0,0,0,1.77-3.9c2.85-18.19-7.07-43.08-16-59-6.51-11.56-17.42-30.51-32.79-29.6a1.21,1.21,0,0,0-1.18,1.18c-.06,7.09,3.35,13,5.4,19.75,2.77,9.06,3.71,18,5.48,27.26.81,4.24,1.7,8.81,2.81,13.42l-11.12-8.9-1.24-.71c1.93-17.44-6.46-35.85-14.48-50.85-6.72-12.58-18.84-39-36.26-34.72a5.77,5.77,0,0,0-4.11,4.11c-3.13,15.68,17.46,27.54,25.93,39,8.86,12,14.42,26.3,22.5,38.72a155.05,155.05,0,0,0-26-11.32c-4-13.28-14.41-28.21-18.49-34-12.73-18-30.82-34.88-53.29-38.82a1,1,0,0,0-1.11,1.44c12.94,20.85,30.54,38.37,41.87,60.38.63,1.22,1.46,3.3,2.45,5.79H1135.8a91,91,0,0,0-33.19-42.38c-14.67-10.21-41.25-25.14-59.52-19.59a.4.4,0,0,0-.17.66c5.65,6.17,13.25,9.4,19.95,14.34,8.68,6.41,15.34,14,21.44,22.89a175.29,175.29,0,0,1,13.43,24.08h-10c-65.91-62.33-133.87-75-202.66-67.72-27.81-19.27-60.28-45.24-91.06-23-1.12.81-.92,3.09.8,2.93,26.11-2.45,39.73,21.34,55.93,37.68a93.41,93.41,0,0,0,19.48,15.53l-.27,1.09c-50.93-31.34-103.87-56.81-159.15-75.39l-163.34-4.19-22.58,1.19a62.79,62.79,0,0,0-11.86-6.4c-16.26-6.48-33-4.7-47.75,4.48a.39.39,0,0,0,.31.71c11.8-3.2,24.87-2.9,35.84,2.45L468,1139.52c39.12,6.14,52,17.53,41.88,33.51-36.91-26.16-72.56-19.29-107.89-4.17-13.18-1.46-25.94,9.86-35.25,18.44-16.94,15.61-30.38,34.78-48.27,49.37C317.15,1237.7,318.53,1239.67,320,1239.29Z" transform="translate(-108.85 -1126.25)"/><path class="cls-1" d="M531.93,1515.72c-.32.3.11.89.47.61,38-28.66,83.52-8,125.3-20.33,1.23-.36,1.06-2.42-.31-2.31C616.21,1496.8,564.71,1484.32,531.93,1515.72Z" transform="translate(-108.85 -1126.25)"/><path class="cls-1" d="M892.73,1429.49c-32.23-8.94-69-1.59-100.05,8.66a.39.39,0,0,0,.21.76c33.83-8.9,65.24-6.73,99.52-7.11A1.18,1.18,0,0,0,892.73,1429.49Z" transform="translate(-108.85 -1126.25)"/><path class="cls-1" d="M823,1453.69c33.94,6.18,74.68,10.67,108.1.1a1.57,1.57,0,0,0-.42-3.08c-36-.67-71.18,4.47-107.47,1.43A.79.79,0,0,0,823,1453.69Z" transform="translate(-108.85 -1126.25)"/><path class="cls-1" d="M738.11,1482.18c-6.92-4.91-15.11-2.45-23-2-7.44.46-15,.68-22.53.65-16-2-31-5.94-44-12.76a1.18,1.18,0,0,0-1.19,2c12.4,7.26,24.72,10.42,37.52,11.79a1.44,1.44,0,0,0,.59,1.47c9.46,6.13,18.32,9.45,29.63,10.24,8.58.6,19.36.1,23.89-8.23a2.34,2.34,0,0,0-.67-3c33.79-.8,67.71-2.58,101.17-6.87,1-.13,1-1.62,0-1.58-29.3,1.36-65.74,7-101.25,8.34C738.16,1482.28,738.16,1482.22,738.11,1482.18Z" transform="translate(-108.85 -1126.25)"/><path class="cls-1" d="M1374.78,1364.42a2,2,0,0,0,1.69-3c-3.83-7.91-10.88-13.1-15.37-20.66-7.41-12.48-8.89-27.22-11-41.26-3-19.7-6.42-36-20.83-50.23a.59.59,0,0,0-.93.71c14.16,27.38,8.69,58.55,18.9,86.83C1351.74,1349.4,1359.88,1364.88,1374.78,1364.42Z" transform="translate(-108.85 -1126.25)"/><path class="cls-1" d="M1444.51,1676.84c30.62-35.86,6-99.59-23.91-127.67-.31-.29-.9.1-.62.48,14.58,19.9,25,42.33,27.16,67.18,1.76,20.13-4.41,39.28-4.64,59.18A1.19,1.19,0,0,0,1444.51,1676.84Z" transform="translate(-108.85 -1126.25)"/><path class="cls-1" d="M1467.51,1699.07a1.39,1.39,0,0,0,2.51.33c13.7-25,6.27-61.35.9-88a1,1,0,0,0-1.93.26,324,324,0,0,1,0,46.94C1468.05,1672.05,1465.17,1685.71,1467.51,1699.07Z" transform="translate(-108.85 -1126.25)"/><path class="cls-1" d="M1566.78,1621.84c13.36,24,17.39,49.06,15.92,76.18a1,1,0,0,0,1.93.26c6.42-27.13-1.08-54.64-17.51-76.64A.2.2,0,0,0,1566.78,1621.84Z" transform="translate(-108.85 -1126.25)"/><g id="pupila"><path class="cls-2" d="M389.6,1707.31c96.51-137.58,166.15-174.71,229.32-187.67a245.3,245.3,0,0,1,37.73-4.58L994.51,1499c25.13,0,102.93,76.25,128.9,106.07a66.46,66.46,0,0,0,18,14.44c5.26,2.91,11.66,7.51,15.93,14.18a11.48,11.48,0,0,1-8.47,17.49c-61.45,7.67-121.15,30.65-179.47,65.6-118.52,46.61-262.38,55.6-427.19,33.51-41.88-33.51-92.14-75.39-149.8-40C390.27,1711.13,388.29,1709.17,389.6,1707.31Z" transform="translate(-108.85 -1126.25)"/><path class="cls-1" d="M1157.32,1633.71c-4.27-6.67-10.67-11.27-15.93-14.18a66.46,66.46,0,0,1-18-14.44c-26-29.82-103.77-106.07-128.9-106.07l-51.25,2.44c6.06,76.79,5.18,135.77-36.7,177.65-58.64,50.25-108.49,91.39-201,41.88-75.39-41.88-50.26-184.28,25.12-192.66,13-1.49,19.05,1.82,8.38,16.76-33.5,33.5-47,61.18-37.06,97a91.9,91.9,0,0,0,35.43,50.15c37.33,26.33,81.42,22.14,134.37-22a88.7,88.7,0,0,0,27.35-40.58c14-42.54,15.11-84.61-.81-126.06l-37.57,1.79c38.7,88.08,24.88,119.27-.25,144.4s-79.58,37.69-113.08,12.56c-25.13-25.12-8.38-100.51,25.13-108.89,43-5.37,51.39,61.64,8.37,67,10.47-24.43.58-34.32-10.27-24.82a21.47,21.47,0,0,0-6.83,19.52c5.12,30.09,61.53,27,84.11-3.07,14.91-29.81-8.58-96.9-29.93-104.68l-161.34,7.69a245.3,245.3,0,0,0-37.73,4.58c-63.17,13-132.81,50.09-229.32,187.67-1.31,1.86.67,3.82,2.79,3,41-25.21,78.31-11.21,111.51,11l-.65-.49c-20.2-24.22-28.48-48-19.7-71.07,2.74-6.5,6.45-10.51,10.77-13,6.64-3.8,15,.94,16.12,8.52l3.31,23.19a98.65,98.65,0,0,0,16.66,42.35l28.87,41.54q26.91,3.28,53.06,5.43l-32.46-3.35c-12.41-33.43-25-67-28.3-95.89-1-8.44-2.11-16.84-3.14-25.28a73.14,73.14,0,0,1,2.36-30.22c2.11-6.92,5.16-12.87,9.79-17.17,7.07-6.58,18.61-.27,17.84,9.35-3.83,47.94-3.76,88,5.44,109.46,2.46,5.74,5.14,11.42,7.23,17.31a82.51,82.51,0,0,0,24.49,36q14.92,1.19,29.57,2-31.1-48.27-31.82-106.69c-.06-5.17-.16-10.37-.48-15.53-1.53-24.8-1.18-42.45.52-55,2.27-16.84,16.32-30.09,33.32-30,3.17,0,5.56,2.49,7,5.9,2.38,5.53,1,11.88-2.31,16.88-17.65,26.33-15.12,46.31-13.53,79.17.63,12.8,3,25.54,8,37.35,15.46,36.56,39.06,52,61.87,69.57,58.15-.21,112.92-5.43,164-16.11,13-9.93,24-20.47,35.38-29C955,1681,983,1624.42,981.08,1564.79a246.28,246.28,0,0,0-5.38-44.11,7.36,7.36,0,0,1,8.38-8.94c9.15,1.74,16.82,8,22.9,19.11,6.31,11.58,8.58,25,7.95,38.19-4.63,96.93-33.24,124-61,153.47,5.18-1.87,10.39-3.71,15.48-5.71,58.32-35,118-57.94,179.47-65.6A11.48,11.48,0,0,0,1157.32,1633.71Z" transform="translate(-108.85 -1126.25)"/></g></g><g id="olho_direito" data-name="olho direito"><path class="cls-1" d="M3272.67,1507.18c-1-.52-.3-2.19.75-1.8,22.4,8.43,47.27,22.63,56.5,45.93.64,1.61-1.56,2.43-2.62,1.53C3308.82,1537.19,3294.47,1519,3272.67,1507.18Z" transform="translate(-108.85 -1126.25)"/><path class="cls-1" d="M3334.68,1603.89c-39.19-30.74-74.46-67.37-110.08-102.1-1.09-1.07.54-2.66,1.67-1.66,37.38,32.81,76.67,65.12,110.35,101.82A1.37,1.37,0,0,1,3334.68,1603.89Z" transform="translate(-108.85 -1126.25)"/><path class="cls-1" d="M3356.1,1648.23c-31.82-18.29-61.64-39.51-88.29-64.8-30.17-28.63-52-64.32-85.8-89.21a1.18,1.18,0,0,1,1.19-2c30.61,16.39,49.3,46,72.09,71.21a427.82,427.82,0,0,0,102,82.8A1.18,1.18,0,0,1,3356.1,1648.23Z" transform="translate(-108.85 -1126.25)"/><path class="cls-1" d="M3157.47,1503.41c-2.25-1.15-.27-4.54,2-3.39,80.7,41.26,110.85,135.9,190.23,180.45.19.1.06.43-.15.35C3263.73,1650.62,3237.26,1544.21,3157.47,1503.41Z" transform="translate(-108.85 -1126.25)"/><path class="cls-1" d="M3343.64,1701.52c-84.08-26.77-118-113.09-175.14-172.45-69.87-72.56-163.25-117.36-262.69-130.58-2.46-.32-2.5-4.24,0-3.92,79,10.09,153.36,39.66,216.55,88.45a444.13,444.13,0,0,1,83.68,85.5c39.44,52.53,71.84,110,137.91,131.87C3344.67,1700.62,3344.37,1701.75,3343.64,1701.52Z" transform="translate(-108.85 -1126.25)"/><path class="cls-1" d="M3168.51,1568.79c-72-82.66-169.58-146.71-283.39-134.29-2.77.31-2.7-4,0-4.32,80.76-10.24,157.21,21.08,219.1,71.86,36.86,30.25,68.34,66.56,97.64,104,34.95,44.67,65.75,111.73,133,104.15.48,0,.57.72.11.82C3257.76,1729.43,3208.61,1614.81,3168.51,1568.79Z" transform="translate(-108.85 -1126.25)"/><path class="cls-1" d="M3181.47,1628.82c-80.31-99.6-196.74-164.85-322.68-184.72-3.24-.51-1.86-5.43,1.36-4.93,88.91,13.9,173.09,49.52,243.71,105.63a496.12,496.12,0,0,1,88.76,91.48c17.53,23.46,32,49.77,52.65,70.72,34,34.44,95.77,52.88,125,1.09.27-.48.93-.06.72.42-15,34.82-52.25,44.91-86.49,31.28C3236.4,1720.66,3212,1666.71,3181.47,1628.82Z" transform="translate(-108.85 -1126.25)"/><path class="cls-1" d="M3044.19,1548.32c55.48,69,100.16,151,181.55,192.69.78.4.23,1.79-.6,1.44-82.56-34.78-141-128.57-189.18-200.74a383,383,0,0,0-40.42-28.2c-29.17-17.4-63-27.11-97.24-34.16.25.31.31.8-.16.87-18.49,2.81-37.87,3.64-55.75-2.71-1-.34-.91-2,.27-1.93,18.31,2,35.9,4.73,54.36,3.51-21.25-4.34-42.63-7.67-63.09-11.19-64.55-11.09-129.58-18.94-194.63-26.46-1-.11-1-1.62,0-1.57,26.34,1.21,53.48,2.69,80.93,4.75-.21-.82.06-1.77,1-1.9,8.75-1.22,18.49-3.32,26.38-7.45,8.46-4.44,14.89-11.7,22.64-17.14,9.26-6.51,18.59-9.35,29.22-4.81,1.44.62.41,2.94-1.06,2.51-7.9-2.33-18.25,1.73-24.12,6.89-3,2.67-5.55,5.87-8.45,8.67a59,59,0,0,1-14.36,10.5,44.55,44.55,0,0,1-12.85,4.21c89.67,7.62,181.81,22.48,261.21,57.21,47.5,20.78,80.5,53.7,114.73,91.74,48.12,53.49,100.53,102.73,147.14,157.68a.79.79,0,0,1-1.11,1.11c-45.81-40.11-88.34-83.53-131.66-126.27C3102.2,1601.19,3074.21,1573,3044.19,1548.32Z" transform="translate(-108.85 -1126.25)"/><path class="cls-1" d="M2973.61,1529.24c-1.23-.13-1.28-2,0-2,38.89,2.29,53.13,35,72.09,64.45,34.06,53,76.94,98.21,126.66,136.63,1.57,1.22-.55,4-2.14,2.78-33.89-26.1-64.94-55.15-92-88.31C3050.32,1608.76,3021.66,1534.41,2973.61,1529.24Z" transform="translate(-108.85 -1126.25)"/><path class="cls-1" d="M3109.6,1712c-26.12-29-49.61-60.23-76.09-89s-56.49-54.65-81.24-84.53c-.52-.64.17-1.8.95-1.24,31.5,22.4,58.44,53.28,84.12,82,26,29,52.71,58.81,73.8,91.61A1,1,0,0,1,3109.6,1712Z" transform="translate(-108.85 -1126.25)"/><path class="cls-1" d="M3020.9,1413.49c-8.14-5.19-16.55-10.36-25.36-14.3-10.68-4.78-21.83-6.84-32.63-11-1.68-.65-2-3.29,0-3.79,22.41-5.48,48.29,8,60.4,26.7A1.77,1.77,0,0,1,3020.9,1413.49Z" transform="translate(-108.85 -1126.25)"/><path class="cls-1" d="M2479.07,1475.37a1,1,0,0,1,1,1.7c-45.28,27.45-82.7,62.3-123.88,94.91-1.09.86-3.19-.31-2.15-1.67C2385.39,1529.22,2433.64,1498.53,2479.07,1475.37Z" transform="translate(-108.85 -1126.25)"/><path class="cls-1" d="M2297.09,1608.64c23.12-34.09,53.56-64.52,81.55-94.64,22.11-23.79,45-56.58,78.34-63.85a1,1,0,0,1,.52,1.89c-34.9,9.52-63.93,52.17-87.64,78.32s-45.45,55.06-70.61,79.94C2298.18,1611.37,2296.19,1610,2297.09,1608.64Z" transform="translate(-108.85 -1126.25)"/><path class="cls-1" d="M2241.76,1659.33c-7.5-39.41,27.28-64.73,52.87-89.63,44.26-43.06,88.28-86.29,133.79-128,.37-.34.91.19.56.55-31,32.54-62.74,64.22-94.71,95.82-33.64,33.25-86.77,70.34-89.43,120.87C2244.75,1660.58,2242.1,1661.16,2241.76,1659.33Z" transform="translate(-108.85 -1126.25)"/><path class="cls-1" d="M2224.54,1689.12c-14.58-28-2.71-62.93,18.67-83.79.68-.67,2.1,0,1.71,1q-1.77,4.58-3.56,9.15a.39.39,0,0,1-.75-.2c3-12.21-5.18,5.23-6.36,7.71a104.9,104.9,0,0,0-7.81,22.55c-3.1,14.44-1,28.44.66,42.88C2227.26,1689.8,2225.14,1690.27,2224.54,1689.12Z" transform="translate(-108.85 -1126.25)"/><path class="cls-1" d="M2282.07,1622.21a1,1,0,0,1,1.89.52c-5.29,31.13,29.93,62.48,46.16,85.2.68,1-.66,2.27-1.61,1.62C2305.14,1693.4,2273.64,1652.19,2282.07,1622.21Z" transform="translate(-108.85 -1126.25)"/><path class="cls-1" d="M2352.91,1699.94c70.72,12.35,133.11,42,186.65,90,.77.69-.34,1.71-1.11,1.11-55.31-42.84-117.94-73.08-186.17-88.79C2350.78,1701.86,2351.44,1699.68,2352.91,1699.94Z" transform="translate(-108.85 -1126.25)"/><path class="cls-1" d="M2449.89,1708.83c59,23.75,116.46,52.29,174.36,78.62,1.15.52.15,2.2-1,1.69-58-25.81-117.43-49.81-174.26-78.16C2447.81,1710.39,2448.65,1708.32,2449.89,1708.83Z" transform="translate(-108.85 -1126.25)"/><path class="cls-1" d="M2325.51,1717.36c54.5,20.15,109.2,40.14,162.81,62.58,37.73,15.78,74.26,34.19,101.64,65.26a.79.79,0,0,1-1.11,1.11c-72.17-65.62-175.07-91.12-263.76-127.44C2324.18,1718.5,2324.54,1717,2325.51,1717.36Z" transform="translate(-108.85 -1126.25)"/><path class="cls-1" d="M2316.61,1740.19c69.08,22.92,137,53.4,195.64,97.09,1,.73.14,2.33-1,1.69-63.85-35.9-126.61-70.6-195-97.65C2315.61,1741.05,2315.88,1739.94,2316.61,1740.19Z" transform="translate(-108.85 -1126.25)"/><path class="cls-1" d="M2553.53,1863.66c-55.89-12.61-108.3-34.72-155.71-67.06-.62-.42-.05-1.42.6-1,48.58,30.31,99.88,52.72,155.53,66.55C2554.93,1862.39,2554.51,1863.88,2553.53,1863.66Z" transform="translate(-108.85 -1126.25)"/><path class="cls-1" d="M2394.32,1823.35c57.15,51.49,142.21,31.84,201.42,78.34.88.68-.27,2.16-1.18,1.54-61.75-42-147-24.27-201.35-78.77C2392.49,1823.74,2393.57,1822.67,2394.32,1823.35Z" transform="translate(-108.85 -1126.25)"/><path class="cls-1" d="M2607.76,1916c-72.41,9-146.28-18.43-202.84-62.55-.53-.41.15-1.28.71-.92,63.54,41.32,127.49,56.16,202.13,61.9A.79.79,0,0,1,2607.76,1916Z" transform="translate(-108.85 -1126.25)"/><path class="cls-1" d="M2641.41,1957.52c-59.47-23.56-127.46-14.61-183.62-46.2-1.34-.75-.16-2.66,1.19-2,57.44,26.92,130,10.4,183.34,46.07C2643.36,1956.06,2642.73,1958,2641.41,1957.52Z" transform="translate(-108.85 -1126.25)"/><path class="cls-1" d="M2513.61,1951.09c67.42,15.52,153.38,1.34,212.94,41,1.55,1,.6,4-1.36,3.23-68.91-28.19-144.62-12.4-212.34-42.48C2511.8,1952.41,2512.57,1950.85,2513.61,1951.09Z" transform="translate(-108.85 -1126.25)"/><path class="cls-1" d="M2762.33,2012a.79.79,0,0,1,0,1.57c-48.22.33-95.86-4.47-142.31-17.69a1,1,0,0,1,.52-1.89C2667.4,2004.49,2714.26,2011.55,2762.33,2012Z" transform="translate(-108.85 -1126.25)"/><path class="cls-1" d="M2860.07,1904.76c-1.21-1,.17-2.46,1.34-2.3,18.8,2.65,32.2-3.54,50-7.16,9.57-2,18.3-1.1,27,3.49a1,1,0,0,1-.75,1.8C2912.35,1892,2882.57,1922.83,2860.07,1904.76Z" transform="translate(-108.85 -1126.25)"/><path class="cls-1" d="M2830.64,1929.12a1.19,1.19,0,0,1,.91-2.16c15.51,2.87,28.24,1.84,43.65-1,10.32-1.9,19.9-2.14,30.14.43,1.25.31,1,2.48-.31,2.31C2882.32,1926,2851,1944.39,2830.64,1929.12Z" transform="translate(-108.85 -1126.25)"/><path class="cls-1" d="M2883,1955.18c.62.17.52,1.23-.16,1.16A291.48,291.48,0,0,0,2853,1955c-9.95,0-20.07,2.4-29.88,1.38-.87-.09-1.46-1.36-.5-1.83C2840.25,1946,2864.86,1950.31,2883,1955.18Z" transform="translate(-108.85 -1126.25)"/><path class="cls-1" d="M3197.27,1765.21c-.63-1.11.58-2.06,1.61-1.61,6.15,2.69,11.42,7.51,17.56,10.53a78.74,78.74,0,0,0,21.32,7.23c1.09.19.84,2-.26,1.92C3224,1782.58,3204.5,1778,3197.27,1765.21Z" transform="translate(-108.85 -1126.25)"/><path class="cls-1" d="M3185.62,1791.85c-.42-1,.51-2.33,1.61-1.61,8.65,5.69,16.33,10.78,27.17,8a2,2,0,0,1,1,3.79C3205.28,1805,3190.24,1802.58,3185.62,1791.85Z" transform="translate(-108.85 -1126.25)"/><path class="cls-1" d="M3157.74,1805.27a1.6,1.6,0,0,1,2-1.51c3.24.53,4.21,1.78,6.52,4.1a70.17,70.17,0,0,0,11.77,9.76,100.78,100.78,0,0,0,25,11.48,1.18,1.18,0,0,1-.31,2.31c-10.3-.36-19.2-2.69-28-8.1C3168.65,1819.62,3157.51,1813.19,3157.74,1805.27Z" transform="translate(-108.85 -1126.25)"/><path class="cls-1" d="M3141.46,1829.34c4.86,6.65,11.17,12.59,19.5,14.24,1.17.24.76,1.83-.26,1.93-10.42,1.07-20.67-3.79-24.36-14C3135.18,1828.29,3139.73,1827,3141.46,1829.34Z" transform="translate(-108.85 -1126.25)"/><path class="cls-1" d="M3128.18,1856.18l.64-.49a3.15,3.15,0,0,1,1.58-.43,2.47,2.47,0,0,1,1.21.27,2.41,2.41,0,0,1,1,.65,2.29,2.29,0,0,1,.65,1,2.31,2.31,0,0,1,.27,1.21c0,.28-.07.56-.11.84a3.12,3.12,0,0,1-.81,1.38l-.63.49a3.06,3.06,0,0,1-1.59.43,2.31,2.31,0,0,1-1.21-.27,2.29,2.29,0,0,1-1-.65,2.41,2.41,0,0,1-.65-1,2.47,2.47,0,0,1-.27-1.21l.11-.83A3.16,3.16,0,0,1,3128.18,1856.18Z" transform="translate(-108.85 -1126.25)"/><path class="cls-1" d="M2676.55,1841.32c132.41,22,264.07,4,387.47-47.8,21.58-17.08,42.93-35.1,68.31-43.71.43-.14.66.49.3.72-80.72,52.13-147.14,112.93-247.27,124.84-1.34.16-1.57-2-.32-2.31,51.33-13.67,99.82-28.56,146-55.94a276.51,276.51,0,0,0,28.77-20.26c-120.13,56.78-254,72.65-384.78,50.14C2671.25,1846.35,2672.84,1840.7,2676.55,1841.32Z" transform="translate(-108.85 -1126.25)"/><path class="cls-1" d="M2920.64,1825.3c-65.94,9.51-137,13-202.78.61-1.09-.2-.84-2,.26-1.93,70.56,2.74,139,6.89,209.28-4.37,61.65-9.86,112.35-42.21,166.27-71.66a.59.59,0,0,1,.6,1C3037.43,1782.52,2987.12,1815.71,2920.64,1825.3Z" transform="translate(-108.85 -1126.25)"/><path class="cls-1" d="M3085.52,1728.26c-90.47,68.28-215.06,104.34-328,84.86-2.17-.37-1.68-4,.52-3.85,120,7.07,225.37-15.32,326.64-82.36C3085.59,1726.34,3086.3,1727.67,3085.52,1728.26Z" transform="translate(-108.85 -1126.25)"/><path class="cls-1" d="M3059.58,1722.41c-81.47,47.38-181.95,80.58-277.29,71a1.57,1.57,0,0,1,0-3.14c99.71-6,187.48-20.48,275.9-70.28A1.37,1.37,0,0,1,3059.58,1722.41Z" transform="translate(-108.85 -1126.25)"/><path class="cls-1" d="M2814.58,1773.81c-1.32-.21-1-2.34.32-2.31,75.75,1.43,139.54-12.55,205.09-51.83.89-.53,1.59.77.79,1.35C2962.8,1763.86,2886.33,1785.36,2814.58,1773.81Z" transform="translate(-108.85 -1126.25)"/><path class="cls-1" d="M2720.14,1958.06c1.18,1-.38,3-1.67,2.16-27-18.3-34.33-51.29-21-80.39.55-1.19,2.66-.33,2.15.91C2687.88,1909.49,2696.77,1938.4,2720.14,1958.06Z" transform="translate(-108.85 -1126.25)"/><path class="cls-1" d="M2657.27,2015.52c38.27,22.35,80.17,16.39,122.26,23,.23,0,.16.37-.05.38-37.95,1.93-92.17,3.84-123.63-21.52C2654.79,2016.52,2656.15,2014.86,2657.27,2015.52Z" transform="translate(-108.85 -1126.25)"/><path class="cls-1" d="M2335.67,1850.29c-.39-.54.5-1.23.93-.72,44.71,54,113.86,97.93,173.3,134.66,72.66,44.9,148.3,65.48,232.52,75.13.73.09.78,1.19,0,1.18-81-1.12-158.86-28.9-228.07-69.69C2452.17,1954.19,2378.34,1909.84,2335.67,1850.29Z" transform="translate(-108.85 -1126.25)"/><path class="cls-1" d="M2315.12,1856c14.3,20.13,32.59,36.82,46.08,57.72,14.5,22.43,22.86,47.39,32.71,72a.2.2,0,0,0,.39,0,121.4,121.4,0,0,0-4.8-31.39,2.42,2.42,0,0,0,.78-1.1c14.14,114.61,146.37,152.83,240.07,181.23,1.06.32,1.78-1.32.76-1.79-44.31-20.48-92.79-30.49-135.75-54.14-55.44-30.53-79.15-77.91-100.68-134.23a8.91,8.91,0,0,0,.72-3.86c6.7,7.37,13.51,14.53,20.73,21.38,0,.18,0,.34,0,.51a1.75,1.75,0,0,0,1.24,1.24,5.63,5.63,0,0,0,.59,0q2.36,2.19,4.79,4.34c56.36,79.22,161.33,124.77,254.6,136.92,1.54.2,1.88-2.48.37-2.7-50-7.42-97.88-22.82-142.08-47.68-44-24.74-77-58.67-112.8-92.95.85-.7,1.69-1.42,2.54-2.05a21.78,21.78,0,0,1,2.64-1.43,29,29,0,0,1,12.91,1.46c64.48,62.75,163.11,102,247.15,120.39a1.18,1.18,0,0,0,.62-2.28c-51.54-13.6-101.38-32-148.08-58-38.31-21.27-70.56-49.33-105.52-74.68a394.93,394.93,0,0,0-37.3-30.08q-2-1.68-4.09-3.23c-5.37-4.91-11.19-9.91-17.36-13.54-12.66-12.38-24.48-25.66-35.82-39.21-3.88-6.62-9.19-12.18-16-17.93-2.15-1.82-4.26-3.59-6.32-5.36-.45-.42-.9-.83-1.36-1.21q-4.17-3.61-8-7.53a24.54,24.54,0,0,0-6-7c-.71-.93-1.48-1.77-2.16-2.76-4.83-7-8.82-14.1-14.19-20.56-19-25.88-42.19-47.83-68.81-66.83-22.92-16.36-64.2-32-75.6-59.25-4.08-9.76-5.19-19.79-5.46-29.89,2.09-11.6,2.15-23.72,4.36-35.32,3.49-18.29,12.49-35.31,14.12-53.77.75-8.45-11.22-12.85-16.65-6.9-17.64,19.36-26.53,64.33-17.24,94.22,4.13,23.32,17.51,45.6,35.5,60.43,19.34,15.94,42.48,26.74,62.67,41.61,23.67,17.43,44.48,38.16,64.4,59.67a99,99,0,0,0,16.16,26.31c1.56,7.7,7.16,15.72,10.88,21.73,1.17,1.9,2.49,3.71,3.8,5.54A2.28,2.28,0,0,0,2315.12,1856Zm9.27,1q-2.41-4.44-4.82-8.91c.84.8,1.64,1.58,2.33,2.34l2.85,3.17a.6.6,0,0,0-.26,1c2.52,2.17,4.86,4.49,7.25,6.78,3.35,3.67,6.72,7.31,10,11.06a.49.49,0,0,0,.74,0,178.6,178.6,0,0,1,14.74,18.89,1.38,1.38,0,0,0-.38.42A249.56,249.56,0,0,0,2324.39,1857Zm64.08,78.44c-.31-1.26-.61-2.52-1-3.78l2.21,2.44C2389.25,1934.51,2388.86,1935,2388.47,1935.43Zm31.91,10.6,3.53,2.92a17.38,17.38,0,0,1-2.9-.9C2420.83,1947.37,2420.59,1946.7,2420.38,1946Zm-6.23-14.66c2,1.52,4.14,2.87,6.18,4.35a1.34,1.34,0,0,0,0,1.57c3.34,4.06,6.9,8,10.52,11.9a16.72,16.72,0,0,1-2.83.24A145.06,145.06,0,0,0,2414.15,1931.37Zm15.8,20.93c-.22-.36-.46-.69-.69-1a18.43,18.43,0,0,0,2.35-1.26l2,2.1A25.9,25.9,0,0,0,2430,1952.3Zm-7.8,2.21c-.06-.61-.09-1.23-.18-1.85a16.28,16.28,0,0,0,5.5-.78l.8.67a26,26,0,0,0-4.33,1.18C2423.4,1953.93,2422.78,1954.21,2422.15,1954.51Zm-84.78-93.15a61.6,61.6,0,0,1,3.66,5c-.57-.51-1.14-1-1.71-1.49C2338.7,1863.7,2338,1862.54,2337.37,1861.36Zm33,33.7a35.67,35.67,0,0,0-3.5-1.25,200.06,200.06,0,0,0-21.39-23.35c-.35-1.26-.77-2.46-1.2-3.65A215.27,215.27,0,0,0,2370.38,1895.06Zm40.62,54.28a102.93,102.93,0,0,0,8,7.07,10.42,10.42,0,0,0-1.58,1.45C2415.36,1955,2413.19,1952.14,2411,1949.34Z" transform="translate(-108.85 -1126.25)"/><path class="cls-1" d="M2520.52,1978.23c-69.48-40.13-139.6-83.77-182.31-153.92-27.35-44.93-52.85-73.21-98-100.54-26.34-16-55.78-32.85-69.29-61.75-.62-1.31,1-2.91,2.15-1.66,45.65,51.37,116.51,71.75,153.69,130.88,23.75,37.78,44.48,73,78.35,103.08,35.52,31.56,76.37,56.85,116.38,82.21A1,1,0,0,1,2520.52,1978.23Z" transform="translate(-108.85 -1126.25)"/><path class="cls-1" d="M2176.88,1743.37c35.19,19.18,65.79,41.55,92.82,71.14a.39.39,0,0,1-.55.55c-28.26-23.55-57.93-45.71-90.48-63-24.7-13.12-51.88-23.09-72-43.33-23-23.12-38.89-65.8-8.39-89.15a1.38,1.38,0,0,1,2,1.55C2075,1685.59,2127.28,1716.34,2176.88,1743.37Z" transform="translate(-108.85 -1126.25)"/><path class="cls-1" d="M2042.62,1710.94c-1.57-2.3,1.8-4.58,3.7-2.85,55,49.82,114.44,76.79,178.53,112,40.46,22.25,93.28,54.72,107.05,101.94.18.63-.78,1.06-1.08.45C2273.79,1806.47,2111.9,1812.78,2042.62,1710.94Z" transform="translate(-108.85 -1126.25)"/><path class="cls-1" d="M2020.65,1690.87a1,1,0,0,1,1.9.52c-14.35,64.19,114.58,107.53,155.73,130.1,41.67,22.86,81.26,50.44,101.76,94.58a1.18,1.18,0,0,1-2,1.19c-47.15-68-117.72-93-186.36-132.72C2058.62,1765.45,2005.58,1736.35,2020.65,1690.87Z" transform="translate(-108.85 -1126.25)"/><path class="cls-1" d="M2055.38,1786.79c-31.25-24.58-57.37-51.22-67.36-89.16a1.19,1.19,0,0,1-1.41-.77c-6.44-23.35.59-53.08,8-75.49.07-.2.42-.18.39.05-1.56,13.33-3,26.83-3.92,40.22-.73,10.48-.11,21.08-1.67,31.44,27.33,93.32,154.42,114.39,173.19,215.31.42,2.22-2.87,4-3.94,1.66C2133.61,1854.44,2102.58,1823.93,2055.38,1786.79Z" transform="translate(-108.85 -1126.25)"/><path class="cls-1" d="M1994.36,1762.18c-32.13-33.59-41.58-77.47-30.57-122,.79-3.19,5.71-1.84,4.92,1.35-22.2,89.79,44,129.27,106.87,174,34,24.19,59.55,51.35,62.87,94.44.05.66-1,.82-1.15.16C2125.12,1831.15,2042.72,1812.73,1994.36,1762.18Z" transform="translate(-108.85 -1126.25)"/><path class="cls-1" d="M2003.21,1794.27c-29.51-21.65-51.42-48.58-52.25-86.32-.07-3.54,5.42-3.54,5.5,0,1.7,72.57,78.89,90.75,123,132.82,29.29,28,42.94,62.91,44.9,102.84,0,.43-.71.54-.77.1-4.54-33-17-64.55-39.42-89.79C2061.5,1828.41,2030.25,1814.12,2003.21,1794.27Z" transform="translate(-108.85 -1126.25)"/><path class="cls-1" d="M1970.6,1790.91c-44.6-45.69-62.37-103-41.92-164.49,1.19-3.58,6.88-2,5.67,1.57-33.74,101.06,39.54,155.49,103.87,216.57,45.61,43.3,72.8,97.87,66.85,161.77a.39.39,0,0,1-.78,0c-1.11-53.18-16.35-100.83-52.68-140.56C2026.74,1838.58,1996.3,1817.24,1970.6,1790.91Z" transform="translate(-108.85 -1126.25)"/><path class="cls-1" d="M1915.78,1658.79c-34.17,91.45,58.28,145.69,111.22,201.85,37.36,39.63,58,86.62,59.63,141.25,0,1-1.45,1-1.57,0-5.57-46.9-22.37-91.27-53.35-127.38-23-26.79-51.7-47.8-76.28-73-38.55-39.48-65.94-89.13-45.33-144.29C1911.42,1653.71,1917.11,1655.23,1915.78,1658.79Z" transform="translate(-108.85 -1126.25)"/><path class="cls-1" d="M1900.61,1579.68c.18-.11.41.16.23.31a30,30,0,0,0-10,14.29c-1.51,4.75-1,9.9-2.39,14.58a1.2,1.2,0,0,1-2.16.28C1880.62,1598.52,1892,1584.68,1900.61,1579.68Z" transform="translate(-108.85 -1126.25)"/><path class="cls-1" d="M1881.8,1566.75c.37-.26.79.31.48.62-9.19,9-10.51,19.76-12.89,31.68-.24,1.21-1.94,1-2.27,0C1863.08,1586.59,1872,1573.63,1881.8,1566.75Z" transform="translate(-108.85 -1126.25)"/><path class="cls-1" d="M1981.73,1591.25a2.37,2.37,0,0,0,.64-1,3.24,3.24,0,0,0,.29-1.39,3.57,3.57,0,0,0-.17-1.11,3.41,3.41,0,0,0-.85-1.47,2.64,2.64,0,0,0-1.08-.69,2.43,2.43,0,0,0-1.28-.28,3.31,3.31,0,0,0-1.68.45,3.69,3.69,0,0,0-1.2,1.19,2.48,2.48,0,0,0-.39,1.23,1.76,1.76,0,0,0-.06.46,3.31,3.31,0,0,0,.45,1.68,2.49,2.49,0,0,0,.86.93,2.43,2.43,0,0,0,1.13.6h.15c.1,0,.18.14.29.17a3,3,0,0,0,2.27-.29A2.73,2.73,0,0,0,1981.73,1591.25Zm-4.66-2.43.23-.54a2.48,2.48,0,0,0-.31,1.15Zm3.09,3-.71.1-.62-.09h0A3.46,3.46,0,0,0,1980.16,1591.86Z" transform="translate(-108.85 -1126.25)"/><path class="cls-1" d="M2119.2,1529.41c64.4-40.53,115-85.49,145.39-157,.17-.41.87-.12.71.3-16.86,46.3-42.62,86.82-79.85,119.48-43.7,38.34-99.15,56.47-119.14,108.22a1.83,1.83,0,0,1,1.15,2.08c-2.57,8.93-5.55,18.08-7.94,27.36-.25,2.42-.62,4.71-.74,7.25a1.65,1.65,0,0,1-1.29,1.59c-2.63,12.87-3.53,25.92,0,38.9,9.45,34.84,42.88,47.82,72.36,60,25,10.37,49.19,20.65,63.81,44.55a.59.59,0,0,1-.92.71c-38.68-36.06-99.61-38.62-132.6-80.94-20.27-26-27.26-62.16-8.66-88C2053.17,1577.71,2090,1547.79,2119.2,1529.41Z" transform="translate(-108.85 -1126.25)"/><path class="cls-1" d="M1944.34,1390.53c33.94-32.93,67.31-66.44,103.28-97.18a.59.59,0,0,1,.83.83c-39.6,42.18-84.36,79-124.65,120.35-35.59,36.57-45.09,88.64,5.06,119.2,37.05,22.58,80.4,27.9,111.68-5.54,23.41-25,29.73-34.68,64.92-35.33,58.9-1.08,93.39-75.19,128.34-117.6.71-.86,2.17.26,1.54,1.19-31.56,46.79-62.89,117-123.58,123.24-18.74,1.94-37.66,4.68-51.43,17.46-7.54,7-11.9,16.86-18.73,24.48-5,5.53-10.28,11.76-17,15.3-21.9,11.56-48.23,3.19-69.5-5.25-39.32-15.59-87.08-51.17-66.42-99.53C1899.35,1427.15,1925.46,1408.85,1944.34,1390.53Z" transform="translate(-108.85 -1126.25)"/><path class="cls-1" d="M1979.09,1407.73c-16.59,17.94-53.64,49.85-52.1,75.45l72.29,35q5.34-3.32,10.7-6.61c10.47-4.76,20.33-15.89,29.54-22.66,22.65-16.66,37.58-22.55,64.59-24,23.85-1.23,43.71-5,59.55-23.61s30.91-37.5,47.32-55.46c.88-1,2.64.33,1.85,1.43-17.46,24.07-35.28,52.71-57.17,72.75-16.41,15-23.93,11.82-45.06,13-44.41,2.58-61.58,25.6-95.74,46.82-16.65,10.34-35.25,17.14-54.87,12.33-32.52-8-47.85-42.51-33.85-72.67,10.95-23.57,36.91-43,54.35-61.57,12.55-13.35,25-26.83,37.67-40,10-10.41,25.27-33.17,37.67-39.62-.67.35-1.26-.63-.6-1l7.15-4.23a.82.82,0,0,1,1,1.28Q2021.75,1361.59,1979.09,1407.73Z" transform="translate(-108.85 -1126.25)"/><path class="cls-1" d="M2008.22,1397.21c-12.34,11.55-29.31,23.36-38.25,38q-31.2,28.32,32.68,56.08a151.41,151.41,0,0,0,26.57-23.45c51.38-45.9,127.61-27.62,156.93-103.24.36-.92,1.83-.56,1.52.42-13.74,43.57-43.52,64.77-86.45,75.47-20.77,5.17-40.06,10.26-58,23.11-10.7,7.68-17.7,20-28.36,27.83-11.26,8.31-25.91,16.41-40.57,13-93.75-21.94,88.79-168.61,106.72-182.7a2,2,0,0,1,2.78,2.78C2060.74,1350.57,2033.66,1373.38,2008.22,1397.21Z" transform="translate(-108.85 -1126.25)"/><path class="cls-1" d="M2149.36,1342.7c-20.13,22.61-42.9,40.71-69,56.06-12.3,7.24-46.38,33.86-61.37,28.61-30.88-10.81,56.14-65.56,66-71.12,1.12-.62,2.5,1,1.43,1.85-14.66,11.92-29.77,23.33-44.09,35.65-1.58,1.36-21.37,17.26-21,19.21,2.25,11.93,29.48-5.1,33-6.93,28.77-15.16,55.18-32.11,80-52.54a1.72,1.72,0,0,1,.08-.85c9.52-21.61,20-40.37,24.55-64,4.06-21.18,6.47-42.7,10.25-64,.27-1.52,2.78-1.17,2.7.37-1.95,33.79-1.16,85.59-22.86,116.39A.75.75,0,0,1,2149.36,1342.7Z" transform="translate(-108.85 -1126.25)"/><path class="cls-1" d="M2010.47,1287c-3.86,4.51-6.77,9.81-11.54,13.43-1,.77-2.32-.29-2.36-1.35-.55-13.1,14.65-25,26-28a1.58,1.58,0,0,1,1.53,2.62C2019.5,1277.91,2014.56,1282.2,2010.47,1287Z" transform="translate(-108.85 -1126.25)"/><path class="cls-1" d="M1985.8,1283.79c-5.24,7.91-7.69,17.47-14.2,24.43a1.78,1.78,0,0,1-2.95-.77c-4.23-10.63,2.46-23.32,9.09-31.65,7-8.86,17-16.28,28.28-18a1.19,1.19,0,0,1,1.15,2C1999.46,1267.55,1991.9,1274.57,1985.8,1283.79Z" transform="translate(-108.85 -1126.25)"/><path class="cls-1" d="M1990.18,1241.39c-.87-2-24,27.46-25.89,30.6-7.63,12.83-14.75,25.73-20.2,39.67a2,2,0,0,1-3.86-.53c-1-31.83,17.49-67,49.25-77.42a2.17,2.17,0,0,1,2.72,2.08l-.19,5.11C1992,1241.78,1990.6,1242.34,1990.18,1241.39Z" transform="translate(-108.85 -1126.25)"/><path class="cls-1" d="M2095.84,1356.89c-1.2,1.65-4.4.75-3.59-1.51,9.47-26.51,0-53.1,7.34-79.42,4.11-14.73,12.83-25.84,28.11-28.62.82-.15,1.45,1,.61,1.43C2085.69,1270.6,2119.48,1324.3,2095.84,1356.89Z" transform="translate(-108.85 -1126.25)"/><path class="cls-1" d="M2228,1257.52l-13.31,7.84-4.18,9.85c-1.43,3.34-2.83,6.7-4.33,10l-.09.2a31.83,31.83,0,0,1-1.84,7.18,1.48,1.48,0,0,1-1.92.86c-4.76,10.22-9.68,20.38-14.49,30.56-8.74,18.47-15,41.44-31.51,54.14a1.3,1.3,0,0,1-.67.22A107.52,107.52,0,0,1,2103,1420c-21.76,8-45.3,7.53-63.93,23.54-11.69,10-17,23.58-33.23,27.28-17.68,4-30.64-6.39-27.61-24.47,5.51-32.94,54-68.19,80.87-83.85a1.38,1.38,0,0,1,1.67,2.16c-15.8,15.91-46.78,34.18-56.51,54.36q-24.64,18,16.42,32l6.13-6.83c6.63-4,11.18-11.68,18.33-15.75,15.32-8.71,33.44-8.59,50-13.5,24.26-7.2,43.79-22,58.67-41.27.72-12.82,6.94-22.77,12.83-34.5,8.55-17,17-34.09,25.65-51.05,1.63-3.18,3.25-6.53,5-9.88a72.65,72.65,0,0,1,2.1-16.12c2.9-13.34,9-23.45,18.61-33a1.38,1.38,0,0,1,2.16,1.67,118.61,118.61,0,0,0-11.64,30c5.61-6.24,12.68-10.47,22.44-10.19a1.61,1.61,0,0,1,1.37,2.38l-2.5,5.34C2229.33,1259.31,2227.77,1258.56,2228,1257.52Z" transform="translate(-108.85 -1126.25)"/><path class="cls-1" d="M2633.07,1475.72c1.31-.12,1.63,2.11.31,2.32-47.37,7.45-92.9-26.84-138-1.35-1.67,1-3.77-1.49-2.14-2.77C2533.55,1442.3,2588.68,1479.74,2633.07,1475.72Z" transform="translate(-108.85 -1126.25)"/><path class="cls-1" d="M2509.56,1419.71c9.94,0,20.38,2.86,30,4.29,19.1,2.86,39.74,3.54,57.21,12.23a2.37,2.37,0,0,1-.56,4.3c-19.16,3.75-39.26-1.06-58.43-3.36-1.63-.19-3.3-.34-5-.49-.1,0-.18.06-.29,0l-.35-.09c-12.5-1-26.12-1.47-36.06-8.72-30.42-6.16-60.45-7.32-89.58,10.45-30.84,18.82-46.93,53-77.6,72-20.8,12.93-29.85,18.06-47,34.6-11.6,11.19-24.63,20.7-36.13,32-19.54,19.16-30.86,48.12-54.67,61.25a1.38,1.38,0,0,1-2-.82c-4.09-27.81,21.74-49.56,40.14-67.86,13.46-13.39,26.68-27.24,41-39.64,23.11-20,34.66-44,57.43-63.63,6.66-5.74,13.82-11.78,21.35-17.78-3.67-19.79,11.87-41.71,27.22-54.47,21-17.41,53-25.11,77.55-10.75a.59.59,0,0,1-.29,1.09c-24.8.29-49.85,3.84-66.76,24.16-4.83,5.81-7.87,12.7-10.35,20,16.67-11,34.29-20.1,51.88-24.42C2456.65,1397,2484.44,1406.14,2509.56,1419.71Z" transform="translate(-108.85 -1126.25)"/><path class="cls-1" d="M2287,1493.26c-18.63,21.37-38.89,40.42-55.78,63.41-9.73,13.26-13.27,23.08-28.76,28.47a3.93,3.93,0,0,1-4.44-1.8c-17.15-36.87,40.83-74.92,63.14-95.2,40-36.32,61.53-92.14,111.19-117.27,3.21-1.62,7,2.59,4,5.25C2339.53,1409,2319.28,1456.16,2287,1493.26Z" transform="translate(-108.85 -1126.25)"/><path class="cls-1" d="M2167.51,1570c-4.52-42.35,41.82-72.81,67.95-99.45,32.41-33,48.53-84.42,90.31-107.12A1,1,0,0,1,2327,1365c-31.53,33.71-42.09,80.62-72.64,116-25.22,29.17-52.48,69.09-84.44,90.41A1.6,1.6,0,0,1,2167.51,1570Z" transform="translate(-108.85 -1126.25)"/><path class="cls-1" d="M3295,1354.35c-19.88-3.15-24.11-23.09-31.25-39a134.34,134.34,0,0,0-21.4-34.06c-8.49-9.73-19.5-16.35-27.92-25.91-1.09-1.24-.07-3.52,1.72-2.95,16,5.11,29.3,20.69,39,33.89a125.48,125.48,0,0,1,15.88,28.17c5.65,14.42,5.34,32.86,24.5,38C3296.81,1352.79,3296.26,1354.54,3295,1354.35Z" transform="translate(-108.85 -1126.25)"/><path class="cls-1" d="M3283.93,1369.87c.73.64-.21,1.55-1,1.23-22.54-9.58-40.58-26.91-54.41-47-7.61-11-12.9-22.65-18.46-34.77s-12.95-20.66-19.68-31.82a1.39,1.39,0,0,1,1.55-2c19.31,4.16,24.81,32.22,32.77,47.34C3239.21,1330.26,3261,1349.8,3283.93,1369.87Z" transform="translate(-108.85 -1126.25)"/><path class="cls-1" d="M3350.36,1433.39c-.55,0-.52-.9,0-.84q-4.32-6.37-10.79-7.17-1.92-.26-3.81-.69c-5.48-1.85-11.39-2.83-16.93-4.72a206.94,206.94,0,0,1-26.61-11.21c-18.29-9.27-38.21-21.82-51-38.14-1.23-1.57.4-4.53,2.38-3.08,15.18,11.06,28.72,23.68,45.33,32.84,18.56,10.23,40,12.74,58.31,22.18C3351.17,1424.56,3361.1,1433.21,3350.36,1433.39Z" transform="translate(-108.85 -1126.25)"/><path class="cls-1" d="M3157,1197.71c-17.44-14.25-35.15-27.26-56.25-35.62-17.57-6.95-36-6.09-53.44-11.81-3.79-1.25-4.42-7.4,0-8.33,38.49-8.15,89.91,24.46,111.54,54.33C3159.66,1197.45,3157.92,1198.49,3157,1197.71Z" transform="translate(-108.85 -1126.25)"/><path class="cls-1" d="M3159.9,1239.29c-18.47-5-32.29-16-45.93-29a191.56,191.56,0,0,0-26.46-21.59c-6.46-4.3-12.43-7.72-16.8-14-29.43,3.12-52.56,7.74-46.24,19.34,31.12,1.87,41.61,10.27,50.88,19.06,95.42,14.14,138.33,150.93,202.12,208.11a.79.79,0,0,1-.95,1.23c-35.56-23.19-58-53.44-81.19-88.43-32-48.19-62.71-87-113-108.74,1,9.13-2,15.5-7.33,19.91,53.57,7.24,85.72,91.48,115.86,124.94.57.65-.16,1.72-1,1.24-22.91-13.84-36.48-35.1-51.11-57-12.58-18.84-24.81-32.93-40.09-43.16,10.19,11.58,17.29,24.4,18.68,39.84.09,1-1.35,1.28-1.83.5-9.85-16.35-20.81-30.34-36.87-41-2.53-1.68-14-6.75-18-12a56.73,56.73,0,0,1-9.35,7.51c18.76,6.69,33.64,20.4,41.76,40.68.53,1.32-1.44,1.92-2.15.91-9.76-13.86-24.24-24.13-40-30.25a61,61,0,0,0-13.8-3.36c-35.62,17.36-97.8,31.93-146.71,20.45a125.85,125.85,0,0,0-58.64-8.37c-17.32,31.08-54.44,29.31-87.95,37.69l-96.33,12.56a267.57,267.57,0,0,1-27.46,3.77,119,119,0,0,0,8.52,9.5c13,12.59,27.65,23.24,40.41,35.94a2.1,2.1,0,0,1-.42,3.26l-2.22,1.34a1.39,1.39,0,0,1-1.88-1.88c-1.64,3-40-28-43.35-31.2-4.89-4.71-10.94-10.14-16.36-16.09-31.65.9-64.36-4-95.44-17.2a54.43,54.43,0,0,1-10.55,15.26c14.19,5.39,27.91,13.37,40.63,20.24,22.43,12.1,43.43,25.26,62.22,42.49.67.62-.19,1.68-1,1.24-20.42-11.68-40-24.7-60.73-35.92-15.33-8.31-32.66-14.21-48.31-22.26-14,9.08-31.58,8.93-49.32,8.31,12.24,3.27,24.14,9.67,35.85,14.64,35,14.84,70,29.65,104.48,45.66,1,.46.29,2.19-.76,1.79-27.67-10.48-55-21.58-82.29-33-26.65-11.13-56.08-29.29-85.54-25.59-2.06.26-2.27-2.88-.47-3.47a43,43,0,0,1,8.06-1.81c-15.63-4.77-30.12-5.71-42.16,1.72h-83.76l-22.17-2c-11.52,3.65-22.61,10.66-28.83,20.32a1.19,1.19,0,0,1-2.2-.59c-.3-8.76,1.87-16.06,7.31-21.89l-24.12-2.19c-2.57,2.66-5.18,5.25-7.1,8.57a58.69,58.69,0,0,0-6.75,17.11c-.26,1.27-1.87,1-2.27,0a38,38,0,0,1-1.76-22.23,35.31,35.31,0,0,0-4.6,5.9,2,2,0,0,1-3.59-.47c-1.46-6.63-.93-11.85,2.24-17.34-4.1-3.51-6.5-7.75-8.33-13-.84-2.44,2.09-4.18,4.1-3.14a77.05,77.05,0,0,0,14.21,5.41,22.19,22.19,0,0,1,3-1.52l10.13-16.88a8.38,8.38,0,0,1-1.78-3.9c-2.85-18.19,7.07-43.08,16-59,6.51-11.56,17.42-30.51,32.79-29.6a1.21,1.21,0,0,1,1.18,1.18c.06,7.09-3.34,13-5.4,19.75-2.77,9.06-3.71,18-5.48,27.26-.81,4.24-1.7,8.81-2.81,13.42l11.12-8.9,1.24-.71c-1.93-17.44,6.46-35.85,14.48-50.85,6.72-12.58,18.84-39,36.26-34.72a5.77,5.77,0,0,1,4.11,4.11c3.13,15.68-17.46,27.54-25.93,39-8.86,12-14.42,26.3-22.5,38.72a155.05,155.05,0,0,1,26-11.32c4-13.28,14.41-28.21,18.5-34,12.72-18,30.81-34.88,53.28-38.82a1,1,0,0,1,1.11,1.44c-12.94,20.85-30.54,38.37-41.87,60.38-.63,1.22-1.46,3.3-2.45,5.79h11.24a91,91,0,0,1,33.19-42.38c14.67-10.21,41.25-25.14,59.52-19.59a.4.4,0,0,1,.17.66c-5.65,6.17-13.25,9.4-19.95,14.34-8.68,6.41-15.34,14-21.44,22.89a174.17,174.17,0,0,0-13.42,24.08h9.94c65.91-62.33,133.87-75,202.66-67.72,27.81-19.27,60.28-45.24,91.06-23,1.12.81.92,3.09-.79,2.93-26.12-2.45-39.74,21.34-55.94,37.68a93.41,93.41,0,0,1-19.48,15.53l.27,1.09c50.93-31.34,103.87-56.81,159.15-75.39l163.34-4.19,22.58,1.19a62.79,62.79,0,0,1,11.86-6.4c16.26-6.48,33-4.7,47.75,4.48a.39.39,0,0,1-.3.71c-11.81-3.2-24.88-2.9-35.85,2.45l33.53,1.76c-39.12,6.14-52,17.53-41.88,33.51,36.91-26.16,72.56-19.29,107.89-4.17,13.18-1.46,25.94,9.86,35.25,18.44,16.94,15.61,30.38,34.78,48.27,49.37C3162.7,1237.7,3161.32,1239.67,3159.9,1239.29Z" transform="translate(-108.85 -1126.25)"/><path class="cls-1" d="M2947.92,1515.72c.32.3-.11.89-.47.61-38-28.66-83.52-8-125.3-20.33-1.23-.36-1.06-2.42.31-2.31C2863.64,1496.8,2915.14,1484.32,2947.92,1515.72Z" transform="translate(-108.85 -1126.25)"/><path class="cls-1" d="M2587.12,1429.49c32.23-8.94,69-1.59,100.05,8.66a.39.39,0,0,1-.21.76c-33.83-8.9-65.24-6.73-99.52-7.11A1.18,1.18,0,0,1,2587.12,1429.49Z" transform="translate(-108.85 -1126.25)"/><path class="cls-1" d="M2656.86,1453.69c-33.94,6.18-74.68,10.67-108.1.1a1.57,1.57,0,0,1,.42-3.08c36-.67,71.18,4.47,107.47,1.43A.79.79,0,0,1,2656.86,1453.69Z" transform="translate(-108.85 -1126.25)"/><path class="cls-1" d="M2741.74,1482.18c6.92-4.91,15.11-2.45,23-2,7.44.46,15,.68,22.53.65,16-2,31-5.94,44-12.76a1.18,1.18,0,0,1,1.19,2c-12.4,7.26-24.72,10.42-37.52,11.79a1.44,1.44,0,0,1-.59,1.47c-9.46,6.13-18.32,9.45-29.63,10.24-8.58.6-19.36.1-23.89-8.23a2.34,2.34,0,0,1,.67-3c-33.79-.8-67.71-2.58-101.17-6.87-1-.13-1-1.62,0-1.58,29.3,1.36,65.74,7,101.25,8.34C2741.69,1482.28,2741.69,1482.22,2741.74,1482.18Z" transform="translate(-108.85 -1126.25)"/><path class="cls-1" d="M2105.07,1364.42a2,2,0,0,1-1.69-3c3.83-7.91,10.89-13.1,15.37-20.66,7.41-12.48,8.89-27.22,11-41.26,3-19.7,6.42-36,20.83-50.23a.59.59,0,0,1,.93.71c-14.15,27.38-8.69,58.55-18.9,86.83C2128.11,1349.4,2120,1364.88,2105.07,1364.42Z" transform="translate(-108.85 -1126.25)"/><path class="cls-1" d="M2035.34,1676.84c-30.62-35.86-6-99.59,23.91-127.67.31-.29.9.1.62.48-14.58,19.9-25,42.33-27.16,67.18-1.76,20.13,4.41,39.28,4.64,59.18A1.19,1.19,0,0,1,2035.34,1676.84Z" transform="translate(-108.85 -1126.25)"/><path class="cls-1" d="M2012.34,1699.07a1.39,1.39,0,0,1-2.51.33c-13.7-25-6.27-61.35-.9-88a1,1,0,0,1,1.93.26,324,324,0,0,0,0,46.94C2011.8,1672.05,2014.68,1685.71,2012.34,1699.07Z" transform="translate(-108.85 -1126.25)"/><path class="cls-1" d="M1913.07,1621.84c-13.36,24-17.38,49.06-15.92,76.18a1,1,0,0,1-1.93.26c-6.42-27.13,1.08-54.64,17.51-76.64A.2.2,0,0,1,1913.07,1621.84Z" transform="translate(-108.85 -1126.25)"/><path class="cls-2" d="M3090.26,1707.31c-96.52-137.58-166.16-174.71-229.33-187.67a245.3,245.3,0,0,0-37.73-4.58L2485.34,1499c-25.13,0-102.93,76.25-128.9,106.07a66.46,66.46,0,0,1-18,14.44c-5.26,2.91-11.66,7.51-15.93,14.18a11.48,11.48,0,0,0,8.47,17.49c61.45,7.67,121.15,30.65,179.47,65.6,118.52,46.61,262.38,55.6,427.19,33.51,41.88-33.51,92.14-75.39,149.8-40C3089.58,1711.13,3091.56,1709.17,3090.26,1707.31Z" transform="translate(-108.85 -1126.25)"/><path class="cls-1" d="M2322.53,1633.66c4.27-6.67,10.67-11.27,15.93-14.18a66.46,66.46,0,0,0,18-14.44c26-29.82,103.77-106.07,128.9-106.07l51.25,2.44c-6.06,76.79-5.18,135.77,36.7,177.65,58.64,50.26,108.49,91.4,201,41.88,75.39-41.88,50.26-184.28-25.12-192.66-13-1.49-19,1.82-8.38,16.76,33.5,33.5,47,61.18,37.06,97a91.9,91.9,0,0,1-35.43,50.15c-37.33,26.34-81.42,22.14-134.37-22a88.78,88.78,0,0,1-27.35-40.59c-14-42.54-15.11-84.61.81-126.06l37.57,1.79c-38.7,88.08-24.88,119.27.25,144.4s79.58,37.69,113.08,12.56c25.13-25.12,8.38-100.51-25.13-108.89-43-5.37-51.39,61.64-8.37,67-10.47-24.43-.58-34.32,10.27-24.82a21.47,21.47,0,0,1,6.83,19.52c-5.12,30.09-61.53,27-84.11-3.07-14.91-29.81,8.58-96.9,29.93-104.68l161.34,7.69a245.3,245.3,0,0,1,37.73,4.58c63.18,13,132.81,50.09,229.33,187.67,1.3,1.86-.68,3.82-2.8,3-41-25.21-78.31-11.21-111.51,11l.66-.49c20.19-24.21,28.47-48,19.69-71.07-2.74-6.5-6.45-10.51-10.77-13-6.64-3.8-15,.94-16.12,8.52l-3.31,23.19a98.65,98.65,0,0,1-16.66,42.35l-28.87,41.54q-26.91,3.29-53.06,5.43l32.46-3.35c12.41-33.43,25.05-67,28.3-95.89.95-8.44,2.11-16.84,3.14-25.27a73.17,73.17,0,0,0-2.36-30.23c-2.11-6.92-5.16-12.87-9.79-17.17-7.07-6.58-18.61-.27-17.84,9.35,3.83,47.94,3.76,88-5.44,109.46-2.46,5.74-5.14,11.42-7.23,17.31a82.45,82.45,0,0,1-24.49,36q-14.93,1.18-29.57,2,31.09-48.27,31.82-106.69c.06-5.17.16-10.37.48-15.53,1.53-24.8,1.18-42.45-.51-55-2.28-16.84-16.33-30.09-33.33-30-3.17,0-5.56,2.49-7,5.9-2.38,5.53-1,11.88,2.31,16.88,17.65,26.33,15.12,46.31,13.53,79.17-.63,12.8-3,25.54-8,37.35-15.46,36.56-39.06,52-61.87,69.57-58.15-.21-112.92-5.43-164-16.11-13.05-9.93-24-20.47-35.38-29-47.83-35.66-75.83-92.21-73.94-151.84a246.28,246.28,0,0,1,5.38-44.11,7.36,7.36,0,0,0-8.38-8.94c-9.15,1.74-16.82,8-22.9,19.11-6.31,11.58-8.58,25-7.95,38.19,4.63,96.93,33.24,124,61,153.47-5.18-1.87-10.39-3.71-15.48-5.71-58.32-35-118-57.93-179.47-65.6A11.48,11.48,0,0,1,2322.53,1633.66Z" transform="translate(-108.85 -1126.25)"/></g></svg>